<svg xmlns="http://www.w3.org/2000/svg" width="256.908" height="323.843" viewBox="0 0 256.908 323.843">
  <g id="Success" transform="translate(-79.036 -129.817)">
    <g id="Group_235" data-name="Group 235" transform="translate(115.658 195.596)">
      <g id="Ellipse_10" data-name="Ellipse 10" transform="translate(0 0)" fill="#719991" stroke="#555556" stroke-width="8">
        <ellipse cx="79.536" cy="77.05" rx="79.536" ry="77.05" stroke="none"/>
        <ellipse cx="79.536" cy="77.05" rx="75.536" ry="73.05" fill="none"/>
      </g>
      <path id="Path_100" data-name="Path 100" d="M975.7,392.04l30.571,39.118,43.747-75.814" transform="translate(-933.323 -316.201)" fill="none" stroke="#eeeded" stroke-linecap="round" stroke-linejoin="round" stroke-width="8"/>
    </g>
    <g id="Group_242" data-name="Group 242" transform="translate(131.012 378.845)">
      <path id="Path_321" data-name="Path 321" d="M65.817,123.555l6.972,18.028a18.685,18.685,0,0,0,5.907,8.084l12.338,9.542L78.085,169.222a15.779,15.779,0,0,0-4.982,6.823l-7.276,18.816-6.745-17.447A20.809,20.809,0,0,0,52.5,168.4L40.63,159.209l13.785-10.674a11.818,11.818,0,0,0,3.722-5.1Z" transform="translate(-40.63 -123.555)" fill="#ffda7d" stroke="#555556" stroke-width="1"/>
      <path id="Path_322" data-name="Path 322" d="M65.817,123.555l6.972,18.028a18.685,18.685,0,0,0,5.907,8.084l12.338,9.542L78.085,169.222a15.779,15.779,0,0,0-4.982,6.823l-7.276,18.816-6.745-17.447A20.809,20.809,0,0,0,52.5,168.4L40.63,159.209l13.785-10.674a11.818,11.818,0,0,0,3.722-5.1Z" transform="translate(-40.63 -123.555)" fill="none" stroke="#555556" stroke-linecap="round" stroke-linejoin="round" stroke-width="7.014"/>
    </g>
    <g id="Group_244" data-name="Group 244" transform="translate(82.543 133.324)">
      <path id="Path_323" data-name="Path 323" d="M27.727,3.507l6.7,17.336a17.968,17.968,0,0,0,5.68,7.773l11.865,9.176L39.524,47.421a15.173,15.173,0,0,0-4.791,6.561l-7,18.094L21.251,55.3a20.01,20.01,0,0,0-6.325-8.672L3.507,37.792,16.763,27.528a11.364,11.364,0,0,0,3.579-4.905Z" transform="translate(-3.507 -3.507)" fill="#ffe192" stroke="#555556" stroke-width="1"/>
      <path id="Path_324" data-name="Path 324" d="M27.727,3.507l6.7,17.336a17.968,17.968,0,0,0,5.68,7.773l11.865,9.176L39.524,47.421a15.173,15.173,0,0,0-4.791,6.561l-7,18.094L21.251,55.3a20.01,20.01,0,0,0-6.325-8.672L3.507,37.792,16.763,27.528a11.364,11.364,0,0,0,3.579-4.905Z" transform="translate(-3.507 -3.507)" fill="none" stroke="#555556" stroke-linecap="round" stroke-linejoin="round" stroke-width="7.014"/>
    </g>
    <g id="Group_243" data-name="Group 243" transform="translate(284.258 281.537)">
      <path id="Path_325" data-name="Path 325" d="M118.783,73.937l6.664,17.233a17.86,17.86,0,0,0,5.646,7.727l11.794,9.121-12.414,9.571a15.056,15.056,0,0,0-4.762,6.522L118.755,142.1l-6.428-16.658a19.9,19.9,0,0,0-6.286-8.622l-11.332-8.8,13.177-10.2a11.3,11.3,0,0,0,3.558-4.876Z" transform="translate(-94.708 -73.937)" fill="#ffe192" stroke="#555556" stroke-width="1"/>
      <path id="Path_326" data-name="Path 326" d="M118.783,73.937l6.664,17.233a17.86,17.86,0,0,0,5.646,7.727l11.794,9.121-12.414,9.571a15.056,15.056,0,0,0-4.762,6.522L118.755,142.1l-6.428-16.658a19.9,19.9,0,0,0-6.286-8.622l-11.332-8.8,13.177-10.2a11.3,11.3,0,0,0,3.558-4.876Z" transform="translate(-94.708 -73.937)" fill="none" stroke="#555556" stroke-linecap="round" stroke-linejoin="round" stroke-width="7.014"/>
    </g>
  </g>
</svg>
