<svg xmlns="http://www.w3.org/2000/svg" width="42.13" height="42.155" viewBox="0 0 42.13 42.155">
  <g id="HomeDark" transform="translate(-112.66 -194.355)">
    <path id="Path_82" data-name="Path 82" d="M151.25,210.28a2.935,2.935,0,0,0-.47-.54L137.33,197.7a5.562,5.562,0,0,0-7.23,0l-13.45,12.04a3.006,3.006,0,0,0-.52.62,5.854,5.854,0,0,0-1.46,3.81v13.9c0,3.55,3.34,6.43,7.47,6.43h23.17c4.12,0,7.47-2.88,7.47-6.43v-13.9a5.81,5.81,0,0,0-1.53-3.88Z" fill="none" stroke="#555556" stroke-width="4.02"/>
    <path id="Path_83" data-name="Path 83" d="M126.48,226.57h15.46" fill="none" stroke="#555556" stroke-linecap="round" stroke-linejoin="round" stroke-width="4.02"/>
  </g>
</svg>
