<svg xmlns="http://www.w3.org/2000/svg" width="23.688" height="19.945" viewBox="0 0 23.688 19.945">
  <g id="Group_139" data-name="Group 139" transform="translate(0 0)">
    <path id="Path_163" data-name="Path 163" d="M20.72,3.4h0a.22.22,0,0,1-.22-.22V2.329a.483.483,0,0,0-.483-.483H18.644a.483.483,0,0,0-.483.483v.852a.22.22,0,0,1-.22.22H14.168a.22.22,0,0,1-.2-.13l-.7-1.557a2.416,2.416,0,0,0-2.2-1.423H5.752a2.416,2.416,0,0,0-2.2,1.423L2.79,3.4h.4a2.907,2.907,0,0,0-2.9,2.9V16.976A3.129,3.129,0,0,0,3.41,20.1H20.72a3.129,3.129,0,0,0,3.119-3.119V6.521A3.128,3.128,0,0,0,20.72,3.4" transform="translate(-0.221 -0.22)" fill="#555556"/>
    <path id="Path_164" data-name="Path 164" d="M5.532,0h5.311A2.49,2.49,0,0,1,13.11,1.465l.7,1.557a.15.15,0,0,0,.137.088h3.773a.15.15,0,0,0,.15-.15V2.109a.554.554,0,0,1,.553-.553H19.8a.554.554,0,0,1,.553.553v.852a.15.15,0,0,0,.15.15A3.2,3.2,0,0,1,23.689,6.3V16.756a3.2,3.2,0,0,1-3.189,3.19H3.19A3.2,3.2,0,0,1,0,16.756V6.08A2.981,2.981,0,0,1,2.508,3.147l.757-1.681A2.49,2.49,0,0,1,5.532,0ZM17.721,3.251H13.948a.291.291,0,0,1-.265-.171l-.7-1.557A2.35,2.35,0,0,0,10.843.141H5.532A2.35,2.35,0,0,0,3.393,1.523L2.678,3.111H2.97a.07.07,0,0,1,0,.14A2.837,2.837,0,0,0,.141,6.08V16.756A3.058,3.058,0,0,0,3.19,19.805H20.5a3.058,3.058,0,0,0,3.049-3.049V6.3A3.058,3.058,0,0,0,20.5,3.251a.291.291,0,0,1-.29-.29V2.109A.413.413,0,0,0,19.8,1.7H18.424a.413.413,0,0,0-.413.413v.852A.291.291,0,0,1,17.721,3.251Z" transform="translate(0 0)" fill="#555556"/>
    <path id="Path_165" data-name="Path 165" d="M30.452,22.925a5.917,5.917,0,1,1-5.917,5.917A5.924,5.924,0,0,1,30.452,22.925Zm0,9.9a3.985,3.985,0,1,0-3.984-3.985A3.989,3.989,0,0,0,30.452,32.827Z" transform="translate(-18.608 -17.387)" fill="#e9e8e8"/>
    <path id="Path_166" data-name="Path 166" d="M39.965,37.491a.792.792,0,1,1-.792-.792.792.792,0,0,1,.792.792" transform="translate(-29.108 -27.833)" fill="#e9e8e8"/>
    <path id="Ellipse_13" data-name="Ellipse 13" d="M.668-.164A.832.832,0,1,1-.164.668.833.833,0,0,1,.668-.164Zm0,1.585A.753.753,0,1,0-.085.668.754.754,0,0,0,.668,1.421Z" transform="translate(9.396 8.99)" fill="#e9e8e8"/>
  </g>
</svg>
