<svg id="EmailConfirmation" xmlns="http://www.w3.org/2000/svg" xmlns:xlink="http://www.w3.org/1999/xlink" width="201.18" height="210.31" viewBox="0 0 201.18 210.31">
  <defs>
    <clipPath id="clip-path">
      <rect id="Rectangle_82" data-name="Rectangle 82" width="201.18" height="210.31" fill="none"/>
    </clipPath>
  </defs>
  <g id="Group_170" data-name="Group 170" clip-path="url(#clip-path)">
    <path id="Path_201" data-name="Path 201" d="M192.092,68.737c-.486-.8-57.971-45.242-81.346-63.294a15.87,15.87,0,0,0-19.425.014C67.9,23.591,10.2,68.333,9.706,69.2A36.211,36.211,0,0,0,2.13,91.255v80.522c0,20.55,17.331,37.28,38.761,37.28H161.167c21.429,0,38.76-16.672,38.76-37.28V91.255a36.014,36.014,0,0,0-7.939-22.518Z" transform="translate(-0.438 -0.438)" fill="#9b504c"/>
    <path id="Path_202" data-name="Path 202" d="M100.6,0a17.544,17.544,0,0,1,10.738,3.665c10.832,8.366,31.636,24.442,49.26,38.118,9.591,7.443,17.151,13.329,22.468,17.493,3.022,2.367,5.365,4.214,6.964,5.489,2.824,2.252,2.881,2.346,3.068,2.656l.265.438A37.745,37.745,0,0,1,201.18,90.8v80.535a37.563,37.563,0,0,1-3.186,15.2,38.748,38.748,0,0,1-8.677,12.388,40.387,40.387,0,0,1-12.855,8.333,41.586,41.586,0,0,1-15.734,3.051H40.452a41.505,41.505,0,0,1-15.735-3.06A40.439,40.439,0,0,1,11.862,198.9a38.826,38.826,0,0,1-8.677-12.389A37.485,37.485,0,0,1,0,171.339V90.8a37.938,37.938,0,0,1,7.872-23c.18-.276.554-.617,3.024-2.6,1.606-1.29,3.958-3.154,6.992-5.542,5.338-4.2,12.925-10.131,22.551-17.626C58.22,28.184,79.027,12.059,89.847,3.68A17.54,17.54,0,0,1,100.6,0Zm89.424,69.11c-3.931-3.287-33.693-26.421-80.754-62.767a14.173,14.173,0,0,0-17.355.012c-49.111,38.034-79.452,61.715-81.36,63.5A34.536,34.536,0,0,0,3.383,90.825v80.513a34.122,34.122,0,0,0,2.9,13.814,35.46,35.46,0,0,0,7.926,11.314,37.07,37.07,0,0,0,11.784,7.65,38.139,38.139,0,0,0,14.459,2.81H160.729a38.219,38.219,0,0,0,14.46-2.8,37.019,37.019,0,0,0,11.783-7.637,35.381,35.381,0,0,0,7.925-11.31,34.2,34.2,0,0,0,2.9-13.839V90.821a34.259,34.259,0,0,0-7.555-21.45Z" transform="translate(0 0)" fill="#555556"/>
    <path id="Path_203" data-name="Path 203" d="M166.447,167.493H48.545a15.042,15.042,0,0,1-15-15V45.543a15.042,15.042,0,0,1,15-15h117.9a15.042,15.042,0,0,1,15,15V152.495a15.043,15.043,0,0,1-15,15" transform="translate(-6.906 -6.288)" fill="#e9e8e8"/>
    <path id="Rectangle_81" data-name="Rectangle 81" d="M14.587-2h117.9a16.574,16.574,0,0,1,16.587,16.587V121.538a16.574,16.574,0,0,1-16.587,16.587H14.587A16.574,16.574,0,0,1-2,121.538V14.587A16.574,16.574,0,0,1,14.587-2Zm117.9,136.948a13.41,13.41,0,0,0,13.41-13.41V14.587a13.41,13.41,0,0,0-13.41-13.41H14.587a13.41,13.41,0,0,0-13.41,13.41V121.538a13.41,13.41,0,0,0,13.41,13.41Z" transform="translate(27.053 24.669)" fill="#555556"/>
    <path id="Path_204" data-name="Path 204" d="M134.6,168.891s65.327-49.927,65.327-39.344v69.532c0,19.3-17.122,35.1-38.049,35.1H40.179c-20.927,0-38.049-15.793-38.049-35.1V125.517c0-10.584,62.8,43.91,62.8,43.91L4.9,212.18l63.15-44.972,22.389-15.945c5.338-3.8,14.074-3.8,19.412,0l86.878,61.87" transform="translate(-0.438 -25.557)" fill="#d77d71"/>
    <path id="Path_205" data-name="Path 205" d="M161.446,235.407H39.748a41.976,41.976,0,0,1-15.381-2.884,40.094,40.094,0,0,1-12.619-7.866,36.811,36.811,0,0,1-8.557-11.686A34.009,34.009,0,0,1,.037,198.648V125.086a2.848,2.848,0,0,1,1.62-2.739c1.314-.6,3.159-.266,5.984,1.081a70.107,70.107,0,0,1,8.142,4.822c5.469,3.643,12.589,8.939,21.164,15.739,12.332,9.78,24.211,19.937,27.65,22.9l24.443-17.407a19.6,19.6,0,0,1,21.341,0L134.137,166.4c3.5-2.655,15.906-11.986,28.79-20.908,8.916-6.174,16.323-10.953,22.015-14.2a68.058,68.058,0,0,1,8.483-4.243c2.912-1.135,4.8-1.35,6.12-.7a2.95,2.95,0,0,1,1.613,2.771v69.532A34.009,34.009,0,0,1,198,212.971a36.811,36.811,0,0,1-8.557,11.686,40.094,40.094,0,0,1-12.619,7.866A41.976,41.976,0,0,1,161.446,235.407ZM6.555,212.3A33.6,33.6,0,0,0,14,222.213a36.782,36.782,0,0,0,11.578,7.214,38.664,38.664,0,0,0,14.167,2.655h121.7a38.664,38.664,0,0,0,14.167-2.655,36.782,36.782,0,0,0,11.578-7.214,33.746,33.746,0,0,0,6.975-8.985l-85.715-61.042a13.2,13.2,0,0,0-4.029-1.895,17.456,17.456,0,0,0-9.424,0,13.2,13.2,0,0,0-4.029,1.895Zm130.421-43.883,58.619,41.745a30.624,30.624,0,0,0,2.238-11.515V129.3a10.129,10.129,0,0,0-3.542.972,70.2,70.2,0,0,0-8.131,4.143c-5.625,3.239-12.919,7.962-21.679,14.037C152.64,156.668,141.268,165.177,136.976,168.418ZM3.362,125.405v73.243a30.586,30.586,0,0,0,1.857,10.523l56.588-40.3c-4-3.436-14.936-12.749-26.363-21.831-8.38-6.66-15.375-11.891-20.793-15.547a76.653,76.653,0,0,0-7.875-4.787A12.111,12.111,0,0,0,3.362,125.405Z" transform="translate(-0.008 -25.126)" fill="#555556"/>
    <path id="Path_206" data-name="Path 206" d="M148.828,81.053a29.92,29.92,0,1,1-29.92-29.92,29.92,29.92,0,0,1,29.92,29.92" transform="translate(-18.318 -10.526)" fill="#719991"/>
    <path id="Ellipse_25" data-name="Ellipse 25" d="M29.508-2A31.5,31.5,0,0,1,51.787,51.787,31.508,31.508,0,1,1,17.243.477,31.312,31.312,0,0,1,29.508-2Zm0,59.839A28.339,28.339,0,0,0,40.535,3.4,28.339,28.339,0,0,0,18.481,55.613,28.152,28.152,0,0,0,29.508,57.839Z" transform="translate(71.082 41.019)" fill="#434444"/>
    <path id="Path_207" data-name="Path 207" d="M119.522,102.426a2.514,2.514,0,0,1-2.014-1.009L105.275,85.041a2.514,2.514,0,1,1,4.028-3.009l9.9,13.253,15.622-28.327a2.514,2.514,0,0,1,4.4,2.428l-17.5,31.74a2.514,2.514,0,0,1-2.028,1.294Q119.608,102.426,119.522,102.426Z" transform="translate(-21.568 -13.516)" fill="#e9e8e8"/>
  </g>
</svg>
