<svg xmlns="http://www.w3.org/2000/svg" width="26.412" height="30.195" viewBox="0 0 26.412 30.195">
  <g id="AccIcon" transform="translate(1.21 1.385)">
    <path id="Path_55" data-name="Path 55" d="M35.556,21.8a6.542,6.542,0,1,1-6.542-6.542A6.542,6.542,0,0,1,35.556,21.8" transform="translate(-17.246 -15.258)" fill="#eeeded" stroke="#555556" stroke-width="1"/>
    <ellipse id="Ellipse_2" data-name="Ellipse 2" cx="6.542" cy="6.542" rx="6.542" ry="6.542" transform="translate(5.224)" fill="#eeeded" stroke="#555556" stroke-width="2.77"/>
    <path id="Path_56" data-name="Path 56" d="M40.494,40.474c0-5.669-5.371-10.265-12-10.265s-12,4.6-12,10.265,23.993,5.669,23.993,0" transform="translate(-16.501 -17.126)" fill="#eeeded" stroke="#555556" stroke-width="1"/>
    <path id="Path_57" data-name="Path 57" d="M40.494,40.474c0-5.669-5.371-10.265-12-10.265s-12,4.6-12,10.265S40.494,46.144,40.494,40.474Z" transform="translate(-16.501 -17.126)" fill="#eeeded" stroke="#555556" stroke-width="2.419"/>
  </g>
</svg>
