<svg xmlns="http://www.w3.org/2000/svg" width="140.251" height="160.742" viewBox="0 0 140.251 160.742">
  <g id="AccMain" transform="translate(2 2)">
    <path id="Path_55" data-name="Path 55" d="M96.779,52.409A37.154,37.154,0,1,1,59.625,15.258,37.152,37.152,0,0,1,96.779,52.409" transform="translate(7.199 -15.256)" fill="#eeeded" stroke="#555556" stroke-width="4"/>
    <ellipse id="Ellipse_2" data-name="Ellipse 2" cx="37.154" cy="37.151" rx="37.154" ry="37.151" transform="translate(29.668)" fill="#eeeded" stroke="#555556" stroke-width="4"/>
    <path id="Path_56" data-name="Path 56" d="M152.752,88.5c0-32.2-30.5-58.3-68.126-58.3S16.5,56.308,16.5,88.5s136.251,32.2,136.251,0" transform="translate(-16.501 44.09)" fill="#eeeded" stroke="#555556" stroke-width="4"/>
    <path id="Path_57" data-name="Path 57" d="M152.752,88.5c0-32.2-30.5-58.3-68.126-58.3S16.5,56.308,16.5,88.5,152.752,120.7,152.752,88.5Z" transform="translate(-16.501 44.09)" fill="#eeeded" stroke="#555556" stroke-width="4"/>
  </g>
</svg>
