<svg xmlns="http://www.w3.org/2000/svg" width="31.196" height="31.953" viewBox="0 0 31.196 31.953">
  <g id="email" transform="translate(-102.06 -524.812)">
    <path id="Path_108" data-name="Path 108" d="M57.181,26.435c-3.534,0-6.425-2.616-6.425-5.814v-4.27c0-3.2,2.891-5.814,6.425-5.814s6.425,2.616,6.425,5.814v4.27C63.606,23.819,60.715,26.435,57.181,26.435Z" transform="translate(59 523.617)" fill="none" stroke="#555556" stroke-linecap="round" stroke-linejoin="round" stroke-width="1.998"/>
    <path id="Path_109" data-name="Path 109" d="M63.673,10.056V24.388c-.4,3.808,3.131,3.979,5.6,1.589a.357.357,0,0,0,.028-.027C73.875,19.872,72.677,4.728,61.713,2.6S44.144,7.715,44.06,17.164c-.145,16.246,12.149,16.5,29.049,13.743" transform="translate(59 523.601)" fill="none" stroke="#555556" stroke-linecap="round" stroke-linejoin="round" stroke-width="1.998"/>
  </g>
</svg>
