<svg xmlns="http://www.w3.org/2000/svg" width="32.032" height="32.649" viewBox="0 0 32.032 32.649">
  <g id="EditAccPhoto" transform="translate(-16.569 -17.259)">
    <path id="Path_154" data-name="Path 154" d="M30.793,1.013,5.085,0a1.42,1.42,0,0,0-.47.06L0,2.975,4.882,6.263a1.536,1.536,0,0,0,.477.1L31.066,7.371a1.144,1.144,0,0,0,1.3-1.092l-.175-4.068A1.394,1.394,0,0,0,30.793,1.013Z" transform="matrix(0.695, -0.719, 0.719, 0.695, 18.69, 42.666)" fill="none" stroke="#555556" stroke-linecap="square" stroke-linejoin="round" stroke-width="3"/>
    <path id="Path_156" data-name="Path 156" d="M0,0,.07,5.33" transform="matrix(-0.682, 0.731, -0.731, -0.682, 41.847, 28.383)" fill="none" stroke="#555556" stroke-linecap="square" stroke-width="3"/>
  </g>
</svg>
