<svg xmlns="http://www.w3.org/2000/svg" width="70.197" height="102.687" viewBox="0 0 70.197 102.687">
  <g id="Group_306" data-name="Group 306" transform="translate(-159.901 -149.404)">
    <path id="Path_175" data-name="Path 175" d="M60.041,104.229H10.827a9.5,9.5,0,0,1-9.475-9.475V19.791a9.5,9.5,0,0,1,9.475-9.474H60.041a9.5,9.5,0,0,1,9.475,9.474V94.754a9.5,9.5,0,0,1-9.475,9.475" transform="translate(159.566 146.846)" fill="#e9e8e8"/>
    <path id="Rectangle_77" data-name="Rectangle 77" d="M9.14-1.352H58.354A10.492,10.492,0,0,1,68.845,9.14V84.1A10.491,10.491,0,0,1,58.354,94.593H9.14A10.492,10.492,0,0,1-1.352,84.1V9.14A10.492,10.492,0,0,1,9.14-1.352ZM58.354,92.56A8.458,8.458,0,0,0,66.812,84.1V9.14A8.458,8.458,0,0,0,58.354.681H9.14A8.458,8.458,0,0,0,.681,9.14V84.1A8.458,8.458,0,0,0,9.14,92.56Z" transform="translate(161.253 157.498)" fill="#555556"/>
    <path id="Path_176" data-name="Path 176" d="M25.981,37.247a7.5,7.5,0,1,1-7.5-7.5,7.5,7.5,0,0,1,7.5,7.5" transform="translate(157.176 142.026)" fill="#719991"/>
    <path id="Path_177" data-name="Path 177" d="M18.15,28.4a8.512,8.512,0,1,1-6.019,2.493A8.456,8.456,0,0,1,18.15,28.4Zm0,14.99a6.478,6.478,0,1,0-6.479-6.478A6.486,6.486,0,0,0,18.15,43.39Z" transform="translate(157.362 142.361)" fill="#555556"/>
    <path id="Path_178" data-name="Path 178" d="M25.981,70.287a7.5,7.5,0,1,1-7.5-7.5,7.5,7.5,0,0,1,7.5,7.5" transform="translate(157.176 133.831)" fill="#719991"/>
    <path id="Path_179" data-name="Path 179" d="M18.15,61.44a8.512,8.512,0,1,1-6.019,2.493A8.456,8.456,0,0,1,18.15,61.44Zm0,14.99a6.478,6.478,0,1,0-6.479-6.478A6.486,6.486,0,0,0,18.15,76.43Z" transform="translate(157.362 134.167)" fill="#555556"/>
    <path id="Path_180" data-name="Path 180" d="M25.981,103.328a7.5,7.5,0,1,1-7.5-7.5,7.5,7.5,0,0,1,7.5,7.5" transform="translate(157.176 125.637)" fill="#719991"/>
    <path id="Path_181" data-name="Path 181" d="M18.15,94.481a8.512,8.512,0,1,1-6.019,2.493A8.456,8.456,0,0,1,18.15,94.481Zm0,14.99a6.478,6.478,0,1,0-6.479-6.478A6.486,6.486,0,0,0,18.15,109.471Z" transform="translate(157.362 125.767)" fill="#555556"/>
    <path id="Path_182" data-name="Path 182" d="M51.556,4.349H49.374a1.357,1.357,0,0,1-1.281-.806,4.111,4.111,0,0,0-7.37,0,1.357,1.357,0,0,1-1.281.806H37.259a3.47,3.47,0,0,0-3.672,3.2V8.994a3.47,3.47,0,0,0,3.672,3.2h14.3a3.47,3.47,0,0,0,3.672-3.2V7.548a3.47,3.47,0,0,0-3.672-3.2" transform="translate(151.572 149.093)" fill="#cc675d"/>
    <path id="Path_183" data-name="Path 183" d="M44.1,0a4.847,4.847,0,0,1,4.562,2.884.433.433,0,0,0,.4.21h2.182a4.4,4.4,0,0,1,4.615,4.142V8.683a4.4,4.4,0,0,1-4.615,4.142h-14.3a4.4,4.4,0,0,1-4.615-4.142V7.237a4.4,4.4,0,0,1,4.615-4.142H39.13a.433.433,0,0,0,.4-.21A4.848,4.848,0,0,1,44.1,0Zm7.148,10.938a2.993,2.993,0,0,0,1.974-.707,2.056,2.056,0,0,0,.755-1.547V7.237a2.056,2.056,0,0,0-.755-1.547,2.993,2.993,0,0,0-1.974-.707H49.063a2.308,2.308,0,0,1-2.159-1.4,3.176,3.176,0,0,0-5.616,0,2.308,2.308,0,0,1-2.159,1.4H36.948a2.993,2.993,0,0,0-1.974.708,2.056,2.056,0,0,0-.755,1.547V8.683a2.056,2.056,0,0,0,.755,1.547,2.993,2.993,0,0,0,1.974.708Z" transform="translate(151.883 149.404)" fill="#555556"/>
    <path id="Path_184" data-name="Path 184" d="M48.188,4.866a.315.315,0,1,1-.315-.315.315.315,0,0,1,.315.315" transform="translate(148.107 148.276)" fill="#e9e8e8"/>
    <path id="Path_185" data-name="Path 185" d="M47.672,3.743a.923.923,0,1,1-.923.923A.924.924,0,0,1,47.672,3.743Z" transform="translate(148.308 148.476)" fill="#555556"/>
    <path id="Line_17" data-name="Line 17" d="M22.716.681H-.335A1.017,1.017,0,0,1-1.352-.335,1.017,1.017,0,0,1-.335-1.352H22.716A1.017,1.017,0,0,1,23.733-.335,1.017,1.017,0,0,1,22.716.681Z" transform="translate(191.73 176.665)" fill="#555556"/>
    <path id="Line_18" data-name="Line 18" d="M22.851.681H-.335A1.017,1.017,0,0,1-1.352-.335,1.017,1.017,0,0,1-.335-1.352H22.851A1.017,1.017,0,0,1,23.868-.335,1.017,1.017,0,0,1,22.851.681Z" transform="translate(191.722 182.551)" fill="#555556"/>
    <path id="Line_19" data-name="Line 19" d="M22.716.681H-.335A1.017,1.017,0,0,1-1.352-.335,1.017,1.017,0,0,1-.335-1.352H22.716A1.017,1.017,0,0,1,23.733-.335,1.017,1.017,0,0,1,22.716.681Z" transform="translate(190.012 201.511)" fill="#555556"/>
    <path id="Line_20" data-name="Line 20" d="M22.851.681H-.335A1.017,1.017,0,0,1-1.352-.335,1.017,1.017,0,0,1-.335-1.352H22.851A1.017,1.017,0,0,1,23.868-.335,1.017,1.017,0,0,1,22.851.681Z" transform="translate(190.003 207.397)" fill="#555556"/>
    <path id="Line_21" data-name="Line 21" d="M22.716.681H-.335A1.017,1.017,0,0,1-1.352-.335,1.017,1.017,0,0,1-.335-1.352H22.716A1.017,1.017,0,0,1,23.733-.335,1.017,1.017,0,0,1,22.716.681Z" transform="translate(189.954 226.356)" fill="#555556"/>
    <path id="Line_22" data-name="Line 22" d="M22.851.681H-.335A1.017,1.017,0,0,1-1.352-.335,1.017,1.017,0,0,1-.335-1.352H22.851A1.017,1.017,0,0,1,23.868-.335,1.017,1.017,0,0,1,22.851.681Z" transform="translate(189.944 232.243)" fill="#555556"/>
    <rect id="Rectangle_78" data-name="Rectangle 78" width="70.196" height="102.687" transform="translate(159.901 149.404)" fill="none"/>
    <path id="Path_100" data-name="Path 100" d="M978.06,362.345a.751.751,0,0,1-.592-.29l-2.608-3.349a.753.753,0,1,1,1.185-.93l1.921,2.467,3.174-5.522a.753.753,0,1,1,1.3.755l-3.731,6.491a.751.751,0,0,1-.6.376Z" transform="translate(-803.109 -178.907)" fill="#eeeded"/>
    <path id="Path_186" data-name="Path 186" d="M978.06,362.345a.751.751,0,0,1-.592-.29l-2.608-3.349a.753.753,0,1,1,1.185-.93l1.921,2.467,3.174-5.522a.753.753,0,1,1,1.3.755l-3.731,6.491a.751.751,0,0,1-.6.376Z" transform="translate(-803.109 -130.437)" fill="#eeeded"/>
    <path id="Path_187" data-name="Path 187" d="M978.06,362.345a.751.751,0,0,1-.592-.29l-2.608-3.349a.753.753,0,1,1,1.185-.93l1.921,2.467,3.174-5.522a.753.753,0,1,1,1.3.755l-3.731,6.491a.751.751,0,0,1-.6.376Z" transform="translate(-803.109 -154.266)" fill="#eeeded"/>
  </g>
</svg>
