<svg xmlns="http://www.w3.org/2000/svg" width="177.879" height="104.324" viewBox="0 0 177.879 104.324">
  <g id="OrgLarge" transform="translate(0.001)">
    <path id="Path_209" data-name="Path 209" d="M107.777,21.7c0,11-9.164,19.926-20.468,19.926S66.841,32.7,66.841,21.7,76,1.773,87.309,1.773h0c11.3,0,20.467,8.921,20.467,19.925Z" fill="#cc675d"/>
    <path id="Path_210" data-name="Path 210" d="M107.777,21.7c0,11-9.164,19.926-20.468,19.926S66.841,32.7,66.841,21.7,76,1.773,87.309,1.773h0c11.3,0,20.467,8.921,20.467,19.925h0" fill="none" stroke="#434444" stroke-width="3.545"/>
    <path id="Path_211" data-name="Path 211" d="M87.309,1.773c11.3,0,20.468,8.921,20.468,19.926S98.613,41.625,87.309,41.625,66.841,32.7,66.841,21.7,76,1.773,87.309,1.773" fill="#d77d71"/>
    <ellipse id="Ellipse_25" data-name="Ellipse 25" cx="20.468" cy="19.926" rx="20.468" ry="19.926" transform="translate(66.841 1.773)" fill="none" stroke="#434444" stroke-width="3.545"/>
    <path id="Path_212" data-name="Path 212" d="M125.556,72.888c0-17.268-16.8-31.266-37.53-31.266S50.5,55.62,50.5,72.888s75.059,17.268,75.059,0" fill="#cc675d"/>
    <path id="Path_213" data-name="Path 213" d="M125.556,72.888c0-17.268-16.8-31.266-37.53-31.266S50.5,55.62,50.5,72.888s75.059,17.268,75.059,0" fill="none" stroke="#434444" stroke-width="3.545"/>
    <path id="Path_214" data-name="Path 214" d="M125.556,72.888c0-17.268-16.8-31.266-37.53-31.266S50.5,55.62,50.5,72.888s75.06,17.268,75.06,0" fill="#d77d71"/>
    <path id="Path_215" data-name="Path 215" d="M125.556,72.888c0-17.268-16.8-31.266-37.53-31.266S50.5,55.62,50.5,72.888,125.556,90.156,125.556,72.888Z" fill="none" stroke="#434444" stroke-width="3.545"/>
    <path id="Path_216" data-name="Path 216" d="M158.327,38.412c0,11.005-9.164,19.926-20.468,19.926s-20.468-8.921-20.468-19.926,9.164-19.926,20.468-19.926h0c11.3,0,20.467,8.921,20.467,19.925Z" fill="#cc675d"/>
    <path id="Path_217" data-name="Path 217" d="M158.327,38.412c0,11.005-9.164,19.926-20.468,19.926s-20.468-8.921-20.468-19.926,9.164-19.926,20.468-19.926h0c11.3,0,20.467,8.921,20.467,19.925h0" fill="none" stroke="#434444" stroke-width="3.545"/>
    <path id="Path_218" data-name="Path 218" d="M137.859,18.486c11.3,0,20.468,8.921,20.468,19.926s-9.164,19.926-20.468,19.926-20.468-8.921-20.468-19.926,9.164-19.926,20.468-19.926" fill="#d77d71"/>
    <ellipse id="Ellipse_26" data-name="Ellipse 26" cx="20.468" cy="19.926" rx="20.468" ry="19.926" transform="translate(117.391 18.486)" fill="none" stroke="#434444" stroke-width="3.545"/>
    <path id="Path_219" data-name="Path 219" d="M176.106,89.6c0-17.268-16.8-31.266-37.53-31.266s-37.53,14-37.53,31.266,75.059,17.268,75.059,0" fill="#cc675d"/>
    <path id="Path_220" data-name="Path 220" d="M176.106,89.6c0-17.268-16.8-31.266-37.53-31.266s-37.53,14-37.53,31.266,75.059,17.268,75.059,0" fill="none" stroke="#434444" stroke-width="3.545"/>
    <path id="Path_221" data-name="Path 221" d="M176.106,89.6c0-17.268-16.8-31.266-37.53-31.266s-37.53,14-37.53,31.266,75.06,17.268,75.06,0" fill="#d77d71"/>
    <path id="Path_222" data-name="Path 222" d="M176.106,89.6c0-17.268-16.8-31.266-37.53-31.266s-37.53,14-37.53,31.266S176.106,106.869,176.106,89.6Z" fill="none" stroke="#434444" stroke-width="3.545"/>
    <path id="Path_223" data-name="Path 223" d="M59.053,38.41c0,11.005-9.164,19.926-20.468,19.926S18.117,49.415,18.117,38.41s9.164-19.926,20.468-19.926h0c11.3,0,20.467,8.921,20.467,19.925Z" fill="#cc675d"/>
    <path id="Path_224" data-name="Path 224" d="M59.053,38.41c0,11.005-9.164,19.926-20.468,19.926S18.117,49.415,18.117,38.41s9.164-19.926,20.468-19.926h0c11.3,0,20.467,8.921,20.467,19.925h0" fill="none" stroke="#434444" stroke-width="3.545"/>
    <path id="Path_225" data-name="Path 225" d="M38.585,18.483c11.3,0,20.468,8.921,20.468,19.926S49.889,58.335,38.585,58.335,18.117,49.414,18.117,38.409s9.164-19.926,20.468-19.926" fill="#d77d71"/>
    <ellipse id="Ellipse_27" data-name="Ellipse 27" cx="20.468" cy="19.926" rx="20.468" ry="19.926" transform="translate(18.117 18.483)" fill="none" stroke="#434444" stroke-width="3.545"/>
    <path id="Path_226" data-name="Path 226" d="M76.832,89.6c0-17.268-16.8-31.266-37.53-31.266S1.772,72.33,1.772,89.6s75.059,17.268,75.059,0" fill="#cc675d"/>
    <path id="Path_227" data-name="Path 227" d="M76.832,89.6c0-17.268-16.8-31.266-37.53-31.266S1.772,72.33,1.772,89.6s75.059,17.268,75.059,0" fill="none" stroke="#434444" stroke-width="3.545"/>
    <path id="Path_228" data-name="Path 228" d="M76.832,89.6c0-17.268-16.8-31.266-37.53-31.266S1.772,72.33,1.772,89.6s75.06,17.268,75.06,0" fill="#d77d71"/>
    <path id="Path_229" data-name="Path 229" d="M76.832,89.6c0-17.268-16.8-31.266-37.53-31.266S1.772,72.33,1.772,89.6,76.832,106.866,76.832,89.6Z" fill="none" stroke="#434444" stroke-width="3.545"/>
  </g>
</svg>
