<svg xmlns="http://www.w3.org/2000/svg" width="42.403" height="42.165" viewBox="0 0 42.403 42.165">
  <g id="Home_icon" data-name="Home icon" transform="translate(-116.59 -92.975)">
    <g id="Group_42" data-name="Group 42">
      <path id="Path_74" data-name="Path 74" d="M155.2,108.9a2.935,2.935,0,0,0-.47-.54L141.27,96.31a5.576,5.576,0,0,0-7.24,0l-13.46,12.05a3.006,3.006,0,0,0-.52.62,5.854,5.854,0,0,0-1.46,3.81V126.7c0,3.55,3.34,6.44,7.47,6.44h23.18c4.13,0,7.47-2.88,7.47-6.44V112.79a5.835,5.835,0,0,0-1.53-3.89Z" fill="none" stroke="#eeeded" stroke-width="4"/>
      <path id="Path_75" data-name="Path 75" d="M130.41,125.19h15.47" fill="none" stroke="#eeeded" stroke-linecap="round" stroke-linejoin="round" stroke-width="4"/>
    </g>
  </g>
</svg>
