<svg xmlns="http://www.w3.org/2000/svg" width="32.027" height="32.001" viewBox="0 0 32.027 32.001">
  <g id="Langauge" transform="translate(2.015 -408.954)">
    <path id="Path_125" data-name="Path 125" d="M31,20.182A15,15,0,1,1,16.233,4.956,15,15,0,0,1,31,20.182Z" transform="translate(-2 405)" fill="none" stroke="#555556" stroke-linecap="round" stroke-linejoin="round" stroke-width="2"/>
    <path id="Path_126" data-name="Path 126" d="M21.978,19.955c0,5.849-1.76,10.967-3.953,13.764a2.5,2.5,0,0,1-3.95,0c-2.193-2.8-4.042-8.565-4.042-14.415,0-6.26,1.849-10.316,4.042-13.113a2.5,2.5,0,0,1,3.95,0C20.218,8.988,21.978,14.106,21.978,19.955Z" transform="translate(-2 405)" fill="none" stroke="#555556" stroke-linecap="round" stroke-linejoin="round" stroke-width="2.133"/>
    <path id="Path_127" data-name="Path 127" d="M1,20.183l15,.228,15,.227" transform="translate(-2 405)" fill="none" stroke="#555556" stroke-linecap="round" stroke-linejoin="round" stroke-width="2"/>
    <path id="Path_128" data-name="Path 128" d="M3.368,28.068l3.819-.62a54.981,54.981,0,0,1,17.627,0l3.82.62" transform="translate(-2 405)" fill="none" stroke="#555556" stroke-linecap="round" stroke-linejoin="round" stroke-width="2"/>
    <path id="Path_129" data-name="Path 129" d="M3.368,12.507l3.819.62a54.981,54.981,0,0,0,17.627,0l3.82-.62" transform="translate(-2 405)" fill="none" stroke="#555556" stroke-linecap="round" stroke-linejoin="round" stroke-width="2"/>
  </g>
</svg>
