<svg xmlns="http://www.w3.org/2000/svg" width="265.7" height="174.113" viewBox="0 0 265.7 174.113">
  <g id="OrgPart" transform="translate(0 0)">
    <path id="Path_261" data-name="Path 261" d="M59.053,108.2c0,11.005-9.164,19.926-20.468,19.926S18.117,119.206,18.117,108.2s9.164-19.926,20.468-19.926h0c11.3,0,20.467,8.921,20.467,19.925Z" fill="#cc675d"/>
    <path id="Path_262" data-name="Path 262" d="M59.053,108.2c0,11.005-9.164,19.926-20.468,19.926S18.117,119.206,18.117,108.2s9.164-19.926,20.468-19.926h0c11.3,0,20.467,8.921,20.467,19.925h0" fill="none" stroke="#434444" stroke-width="3.545"/>
    <path id="Path_263" data-name="Path 263" d="M38.585,88.275c11.3,0,20.468,8.921,20.468,19.926s-9.164,19.926-20.468,19.926S18.117,119.206,18.117,108.2s9.164-19.926,20.468-19.926" fill="#d77d71"/>
    <ellipse id="Ellipse_31" data-name="Ellipse 31" cx="20.468" cy="19.926" rx="20.468" ry="19.926" transform="translate(18.117 88.275)" fill="none" stroke="#434444" stroke-width="3.545"/>
    <path id="Path_264" data-name="Path 264" d="M76.832,159.39c0-17.268-16.8-31.266-37.53-31.266s-37.53,14-37.53,31.266,75.059,17.268,75.059,0" fill="#cc675d"/>
    <path id="Path_265" data-name="Path 265" d="M76.832,159.39c0-17.268-16.8-31.266-37.53-31.266s-37.53,14-37.53,31.266,75.059,17.268,75.059,0" fill="none" stroke="#434444" stroke-width="3.545"/>
    <path id="Path_266" data-name="Path 266" d="M76.832,159.39c0-17.268-16.8-31.266-37.53-31.266s-37.53,14-37.53,31.266,75.06,17.268,75.06,0" fill="#d77d71"/>
    <path id="Path_267" data-name="Path 267" d="M76.832,159.39c0-17.268-16.8-31.266-37.53-31.266s-37.53,14-37.53,31.266S76.832,176.658,76.832,159.39Z" fill="none" stroke="#434444" stroke-width="3.545"/>
    <path id="Path_268" data-name="Path 268" d="M246.148,21.7c0,11-9.164,19.926-20.468,19.926S205.212,32.7,205.212,21.7,214.376,1.773,225.68,1.773h0c11.3,0,20.467,8.921,20.467,19.925Z" fill="#cc675d"/>
    <path id="Path_269" data-name="Path 269" d="M246.148,21.7c0,11-9.164,19.926-20.468,19.926S205.212,32.7,205.212,21.7,214.376,1.773,225.68,1.773h0c11.3,0,20.467,8.921,20.467,19.925h0" fill="none" stroke="#434444" stroke-width="3.545"/>
    <path id="Path_270" data-name="Path 270" d="M225.68,1.773c11.3,0,20.468,8.921,20.468,19.926s-9.164,19.926-20.468,19.926S205.212,32.7,205.212,21.7,214.376,1.773,225.68,1.773" fill="#d77d71"/>
    <ellipse id="Ellipse_32" data-name="Ellipse 32" cx="20.468" cy="19.926" rx="20.468" ry="19.926" transform="translate(205.212 1.773)" fill="none" stroke="#434444" stroke-width="3.545"/>
    <path id="Path_271" data-name="Path 271" d="M263.927,72.888c0-17.268-16.8-31.266-37.53-31.266s-37.53,14-37.53,31.266,75.059,17.268,75.059,0" fill="#cc675d"/>
    <path id="Path_272" data-name="Path 272" d="M263.927,72.888c0-17.268-16.8-31.266-37.53-31.266s-37.53,14-37.53,31.266,75.059,17.268,75.059,0" fill="none" stroke="#434444" stroke-width="3.545"/>
    <path id="Path_273" data-name="Path 273" d="M263.927,72.888c0-17.268-16.8-31.266-37.53-31.266s-37.53,14-37.53,31.266,75.06,17.268,75.06,0" fill="#d77d71"/>
    <path id="Path_274" data-name="Path 274" d="M263.927,72.888c0-17.268-16.8-31.266-37.53-31.266s-37.53,14-37.53,31.266S263.927,90.156,263.927,72.888Z" fill="none" stroke="#434444" stroke-width="3.545"/>
    <path id="Path_275" data-name="Path 275" d="M174.163,58.371c-1.479-.5-4.29.131-5.152-1.035-1.817-2.458-.858-8.495-.123-11.885A1.362,1.362,0,0,0,167,43.924a21.563,21.563,0,0,0-10.494,9.684,8.123,8.123,0,0,1-7.187,4.513H114.881c-5,0-9.092,3.583-9.092,7.962V96.991c0,4.38,4.091,7.963,9.093,7.963h55.865c5,0,9.093-3.583,9.093-7.963V66.083c0-5.088-4.423-7.285-5.677-7.712" fill="#eeeded"/>
    <path id="Path_276" data-name="Path 276" d="M174.163,58.371c-1.479-.5-4.29.131-5.152-1.035-1.817-2.458-.858-8.495-.123-11.885A1.362,1.362,0,0,0,167,43.924a21.563,21.563,0,0,0-10.494,9.684,8.123,8.123,0,0,1-7.187,4.513H114.881c-5,0-9.092,3.583-9.092,7.962V96.991c0,4.38,4.091,7.963,9.093,7.963h55.865c5,0,9.093-3.583,9.093-7.963V66.083C179.84,60.995,175.417,58.8,174.163,58.371Z" fill="none" stroke="#434444" stroke-width="4"/>
    <path id="Path_277" data-name="Path 277" d="M74.44,120.963c1.479.5,4.29-.131,5.152,1.035,1.817,2.458.858,8.495.123,11.885A1.362,1.362,0,0,0,81.6,135.41,21.563,21.563,0,0,0,92.1,125.726a8.123,8.123,0,0,1,7.187-4.513h34.439c5,0,9.092-3.583,9.092-7.962V82.342c0-4.379-4.091-7.962-9.093-7.962H77.856c-5,0-9.093,3.583-9.093,7.963v30.908c0,5.088,4.423,7.285,5.677,7.712" fill="#eeeded"/>
    <path id="Path_278" data-name="Path 278" d="M74.44,120.963c1.479.5,4.29-.131,5.152,1.035,1.817,2.458.858,8.495.123,11.885A1.362,1.362,0,0,0,81.6,135.41,21.563,21.563,0,0,0,92.1,125.726a8.123,8.123,0,0,1,7.187-4.513h34.439c5,0,9.092-3.583,9.092-7.962V82.342c0-4.379-4.091-7.962-9.093-7.962H77.856c-5,0-9.093,3.583-9.093,7.963v30.908C68.763,118.339,73.186,120.536,74.44,120.963Z" fill="none" stroke="#434444" stroke-width="4"/>
    <path id="Path_279" data-name="Path 279" d="M142.814,104.954H113.27a7.5,7.5,0,0,1-7.482-7.481V74.38h29.545a7.5,7.5,0,0,1,7.481,7.481Z" fill="#719991"/>
    <path id="Path_280" data-name="Path 280" d="M142.814,104.954H113.27a7.5,7.5,0,0,1-7.482-7.481V74.38h29.545a7.5,7.5,0,0,1,7.481,7.481Z" fill="none" stroke="#434444" stroke-width="4.353"/>
    <path id="Path_281" data-name="Path 281" d="M116.728,89.409l6.231,8.341,8.916-16.166" fill="none" stroke="#eeeded" stroke-linecap="round" stroke-linejoin="round" stroke-width="2.561"/>
  </g>
</svg>
