<svg xmlns="http://www.w3.org/2000/svg" width="50.7" height="46.594" viewBox="0 0 50.7 46.594">
  <g id="SettingsDark" transform="translate(-239.47 -91.089)">
    <ellipse id="Ellipse_4" data-name="Ellipse 4" cx="13.62" cy="13.25" rx="13.62" ry="13.25" transform="translate(250.68 101.29)" fill="none" stroke="#555556" stroke-width="12.07"/>
    <path id="Path_76" data-name="Path 76" d="M266.84,125.44l5.12-3.26a3.785,3.785,0,0,1,2.85.58s5.75,8.55,4.03,9.65l-5.12,3.26c-1.45.92-7.47-7.45-7.47-7.45a1.971,1.971,0,0,1,.59-2.77Z" fill="#555556" stroke="#555556" stroke-width="4.02"/>
    <path id="Path_77" data-name="Path 77" d="M275.64,117.94,275.2,112a3.615,3.615,0,0,1,1.9-2.14s10.47-.73,10.62,1.27l.44,5.94c.12,1.68-10.33,2.72-10.33,2.72a2.04,2.04,0,0,1-2.2-1.85Z" fill="#555556" stroke="#555556" stroke-width="4.02"/>
    <path id="Path_78" data-name="Path 78" d="M272.81,107.15l-5.11-3.26a3.507,3.507,0,0,1-.59-2.77s5.76-8.55,7.48-7.45l5.11,3.26c1.44.92-4.04,9.64-4.04,9.64a2.1,2.1,0,0,1-2.85.58Z" fill="#555556" stroke="#555556" stroke-width="4.02"/>
    <path id="Path_79" data-name="Path 79" d="M262.5,103.84l-5.37,2.84a3.77,3.77,0,0,1-2.79-.8s-5.01-8.98-3.2-9.94l5.37-2.84c1.52-.8,6.82,8.03,6.82,8.03a1.97,1.97,0,0,1-.83,2.71Z" fill="#555556" stroke="#555556" stroke-width="4.02"/>
    <path id="Path_80" data-name="Path 80" d="M254,110.88l.44,5.94a3.615,3.615,0,0,1-1.9,2.14s-10.47.73-10.62-1.27l-.44-5.94c-.12-1.68,10.33-2.72,10.33-2.72a2.04,2.04,0,0,1,2.2,1.85Z" fill="#555556" stroke="#555556" stroke-width="4.02"/>
    <path id="Path_81" data-name="Path 81" d="M256.42,121.64l5.26,3.04a3.483,3.483,0,0,1,.72,2.74s-5.36,8.79-7.13,7.77l-5.26-3.04c-1.49-.86,3.59-9.81,3.59-9.81a2.1,2.1,0,0,1,2.82-.7Z" fill="#555556" stroke="#555556" stroke-width="4.02"/>
  </g>
</svg>
