<svg xmlns="http://www.w3.org/2000/svg" width="33.4" height="30.946" viewBox="0 0 33.4 30.946">
  <path id="EditOrgWhite" d="M31.622,12.861a1.755,1.755,0,0,0-1.108-1.469,4.908,4.908,0,0,0-1.306-.369,18.991,18.991,0,0,0-1.965-.159,12.01,12.01,0,0,0-1.633-2.94,15.731,15.731,0,0,0,.978-2.206,4.055,4.055,0,0,0,.225-1.1A1.625,1.625,0,0,0,26.09,3.1L22.924,1.083a1.644,1.644,0,0,0-.889-.257c-.945,0-1.962.759-3.465,2.576a12.085,12.085,0,0,0-2.693-.289,12.229,12.229,0,0,0-1.466.085C12.989,1.25,12.1.5,11.184.5a1.542,1.542,0,0,0-.717.176L7.138,2.437a1.677,1.677,0,0,0-.817,1.024A3.791,3.791,0,0,0,6.51,5.642c.14.435.3.863.474,1.287a12.046,12.046,0,0,0-2.493,3.985,16.73,16.73,0,0,0-2.184.537,4.186,4.186,0,0,0-1.015.483A1.627,1.627,0,0,0,.5,13.419L.776,17.1a1.754,1.754,0,0,0,1.109,1.469,4.891,4.891,0,0,0,1.305.369c.414.058.83.1,1.247.126a12.067,12.067,0,0,0,2.035,3.566,15.721,15.721,0,0,0-.693,1.831,4.035,4.035,0,0,0-.173,1.108A1.625,1.625,0,0,0,6.4,27.052l3.261,1.885a1.646,1.646,0,0,0,.822.217,3,3,0,0,0,2.069-1.127c.372-.386.717-.8,1.049-1.215a12.851,12.851,0,0,0,4.477.011c1.837,2.161,2.724,2.623,3.473,2.623a1.551,1.551,0,0,0,.832-.239l3.175-2.021a1.668,1.668,0,0,0,.729-1.086,3.772,3.772,0,0,0-.368-2.156c-.188-.452-.4-.893-.622-1.328a12.08,12.08,0,0,0,1.985-3.45c.14-.024.279-.047.421-.073a16.625,16.625,0,0,0,2.391-.579,4.2,4.2,0,0,0,1.015-.483,1.627,1.627,0,0,0,.789-1.485Zm-20.445,2.2a4.6,4.6,0,0,1,4.7-4.471,4.6,4.6,0,0,1,4.7,4.471,4.6,4.6,0,0,1-4.7,4.471A4.6,4.6,0,0,1,11.177,15.063Z" transform="translate(0.501 0.5)" fill="none" stroke="#555556" stroke-width="2"/>
</svg>
