<svg xmlns="http://www.w3.org/2000/svg" width="43.676" height="25.616" viewBox="0 0 43.676 25.616">
  <g id="Group_256" data-name="Group 256" transform="translate(0)">
    <path id="Path_209" data-name="Path 209" d="M76.892,6.666a5.027,5.027,0,0,1-10.051,0,4.96,4.96,0,0,1,5.026-4.893h0a4.96,4.96,0,0,1,5.025,4.892Z" transform="translate(-50.429 -1.338)" fill="#cc675d"/>
    <path id="Path_210" data-name="Path 210" d="M70.529,10.656a5.545,5.545,0,0,1-2.122-.417A5.452,5.452,0,0,1,66.672,9.1,5.3,5.3,0,0,1,65.5,7.406a5.224,5.224,0,0,1,0-4.156,5.3,5.3,0,0,1,1.173-1.694A5.452,5.452,0,0,1,68.408.418a5.6,5.6,0,0,1,4.244,0,5.452,5.452,0,0,1,1.735,1.139A5.3,5.3,0,0,1,75.559,3.25a5.225,5.225,0,0,1,0,4.156A5.3,5.3,0,0,1,74.387,9.1a5.452,5.452,0,0,1-1.735,1.139A5.545,5.545,0,0,1,70.529,10.656Zm0-9.785a4.63,4.63,0,0,0-3.25,1.31,4.366,4.366,0,0,0,0,6.3,4.688,4.688,0,0,0,6.5,0,4.366,4.366,0,0,0,0-6.3A4.629,4.629,0,0,0,70.53.871Z" transform="translate(-49.092 0)" fill="#434444"/>
    <path id="Path_211" data-name="Path 211" d="M71.867,1.773a4.96,4.96,0,0,1,5.026,4.893,5.027,5.027,0,0,1-10.051,0,4.96,4.96,0,0,1,5.026-4.893" transform="translate(-50.429 -1.338)" fill="#d77d71"/>
    <path id="Ellipse_25" data-name="Ellipse 25" d="M3.688-1.773a5.545,5.545,0,0,1,2.122.417A5.452,5.452,0,0,1,7.546-.216,5.3,5.3,0,0,1,8.718,1.477a5.224,5.224,0,0,1,0,4.156A5.3,5.3,0,0,1,7.546,7.327,5.452,5.452,0,0,1,5.81,8.466a5.6,5.6,0,0,1-4.244,0A5.452,5.452,0,0,1-.169,7.327,5.3,5.3,0,0,1-1.342,5.633a5.224,5.224,0,0,1,0-4.156A5.3,5.3,0,0,1-.169-.216,5.452,5.452,0,0,1,1.566-1.355,5.545,5.545,0,0,1,3.688-1.773Zm0,9.785A4.63,4.63,0,0,0,6.939,6.7a4.366,4.366,0,0,0,0-6.3A4.629,4.629,0,0,0,3.688-.9,4.629,4.629,0,0,0,.438.408a4.366,4.366,0,0,0,0,6.3A4.63,4.63,0,0,0,3.688,8.013Z" transform="translate(17.749 1.773)" fill="#434444"/>
    <path id="Path_212" data-name="Path 212" d="M68.926,49.3c0-4.24-4.126-7.677-9.215-7.677S50.5,45.059,50.5,49.3s18.43,4.24,18.43,0" transform="translate(-38.098 -31.402)" fill="#cc675d"/>
    <path id="Path_213" data-name="Path 213" d="M58.374,51.577a23.016,23.016,0,0,1-6.463-.814,6.885,6.885,0,0,1-2.23-1.068,2.775,2.775,0,0,1-.692-.769,1.9,1.9,0,0,1-.266-.964,6.978,6.978,0,0,1,.771-3.185A8.174,8.174,0,0,1,51.579,42.2a9.9,9.9,0,0,1,3.063-1.721,11.4,11.4,0,0,1,7.463,0A9.9,9.9,0,0,1,65.168,42.2a8.174,8.174,0,0,1,2.084,2.578,6.978,6.978,0,0,1,.771,3.185h-.87a6.115,6.115,0,0,0-.677-2.791,7.309,7.309,0,0,0-1.865-2.3,9.033,9.033,0,0,0-2.8-1.569,10.53,10.53,0,0,0-6.885,0,9.033,9.033,0,0,0-2.8,1.569,7.309,7.309,0,0,0-1.865,2.3,6.115,6.115,0,0,0-.677,2.791c0,1.027,1.611,1.674,2.572,1.969a16.98,16.98,0,0,0,2.877.58,28.467,28.467,0,0,0,6.661,0,16.98,16.98,0,0,0,2.877-.58c.961-.295,2.572-.942,2.572-1.969h.87a1.9,1.9,0,0,1-.266.964,2.775,2.775,0,0,1-.692.769,6.885,6.885,0,0,1-2.23,1.068A23.016,23.016,0,0,1,58.374,51.577Z" transform="translate(-36.76 -30.065)" fill="#434444"/>
    <path id="Path_214" data-name="Path 214" d="M68.926,49.3c0-4.24-4.126-7.677-9.215-7.677S50.5,45.059,50.5,49.3s18.43,4.24,18.43,0" transform="translate(-38.098 -31.402)" fill="#d77d71"/>
    <path id="Path_215" data-name="Path 215" d="M58.374,51.577a23.016,23.016,0,0,1-6.463-.814,6.885,6.885,0,0,1-2.23-1.068,2.774,2.774,0,0,1-.692-.769,1.9,1.9,0,0,1-.266-.964,6.978,6.978,0,0,1,.771-3.185A8.174,8.174,0,0,1,51.579,42.2a9.9,9.9,0,0,1,3.063-1.721,11.4,11.4,0,0,1,7.463,0A9.9,9.9,0,0,1,65.168,42.2a8.174,8.174,0,0,1,2.084,2.578,6.978,6.978,0,0,1,.771,3.185,1.9,1.9,0,0,1-.266.964,2.775,2.775,0,0,1-.692.769,6.885,6.885,0,0,1-2.23,1.068A23.016,23.016,0,0,1,58.374,51.577Zm0-10.857a10.329,10.329,0,0,0-3.442.579,9.033,9.033,0,0,0-2.8,1.569,7.309,7.309,0,0,0-1.865,2.3,6.115,6.115,0,0,0-.677,2.791c0,1.027,1.612,1.674,2.572,1.969a16.981,16.981,0,0,0,2.877.58,28.467,28.467,0,0,0,6.661,0,16.981,16.981,0,0,0,2.877-.58c.961-.295,2.572-.942,2.572-1.969a6.116,6.116,0,0,0-.677-2.791,7.309,7.309,0,0,0-1.865-2.3,9.033,9.033,0,0,0-2.8-1.569A10.329,10.329,0,0,0,58.374,40.72Z" transform="translate(-36.76 -30.065)" fill="#434444"/>
    <path id="Path_216" data-name="Path 216" d="M127.442,23.379a5.027,5.027,0,1,1-5.026-4.893h0a4.96,4.96,0,0,1,5.025,4.892Z" transform="translate(-88.567 -13.947)" fill="#cc675d"/>
    <path id="Path_217" data-name="Path 217" d="M121.079,27.369a5.545,5.545,0,0,1-2.122-.417,5.452,5.452,0,0,1-1.735-1.139,5.3,5.3,0,0,1-1.173-1.694,5.224,5.224,0,0,1,0-4.156,5.3,5.3,0,0,1,1.173-1.694,5.452,5.452,0,0,1,1.735-1.139,5.6,5.6,0,0,1,4.244,0,5.452,5.452,0,0,1,1.735,1.139,5.3,5.3,0,0,1,1.173,1.694,5.225,5.225,0,0,1,0,4.156,5.3,5.3,0,0,1-1.173,1.694,5.452,5.452,0,0,1-1.735,1.139A5.545,5.545,0,0,1,121.079,27.369Zm0-9.785a4.63,4.63,0,0,0-3.25,1.31,4.366,4.366,0,0,0,0,6.3,4.688,4.688,0,0,0,6.5,0,4.366,4.366,0,0,0,0-6.3A4.629,4.629,0,0,0,121.08,17.584Z" transform="translate(-87.23 -12.61)" fill="#434444"/>
    <path id="Path_218" data-name="Path 218" d="M122.417,18.486a4.894,4.894,0,1,1-5.026,4.893,4.96,4.96,0,0,1,5.026-4.893" transform="translate(-88.567 -13.947)" fill="#d77d71"/>
    <path id="Ellipse_26" data-name="Ellipse 26" d="M3.688-1.773a5.545,5.545,0,0,1,2.122.417A5.452,5.452,0,0,1,7.546-.216,5.3,5.3,0,0,1,8.718,1.477a5.224,5.224,0,0,1,0,4.156A5.3,5.3,0,0,1,7.546,7.327,5.452,5.452,0,0,1,5.81,8.466a5.6,5.6,0,0,1-4.244,0A5.452,5.452,0,0,1-.169,7.327,5.3,5.3,0,0,1-1.342,5.633a5.224,5.224,0,0,1,0-4.156A5.3,5.3,0,0,1-.169-.216,5.452,5.452,0,0,1,1.566-1.355,5.545,5.545,0,0,1,3.688-1.773Zm0,9.785A4.63,4.63,0,0,0,6.939,6.7a4.366,4.366,0,0,0,0-6.3A4.629,4.629,0,0,0,3.688-.9,4.629,4.629,0,0,0,.438.408a4.366,4.366,0,0,0,0,6.3A4.63,4.63,0,0,0,3.688,8.013Z" transform="translate(30.161 5.876)" fill="#434444"/>
    <path id="Path_219" data-name="Path 219" d="M119.476,66.012c0-4.24-4.126-7.677-9.215-7.677s-9.215,3.437-9.215,7.677,18.43,4.24,18.43,0" transform="translate(-76.236 -44.011)" fill="#cc675d"/>
    <path id="Path_220" data-name="Path 220" d="M108.924,68.29a23.016,23.016,0,0,1-6.463-.814,6.885,6.885,0,0,1-2.23-1.068,2.774,2.774,0,0,1-.692-.769,1.9,1.9,0,0,1-.266-.964,6.978,6.978,0,0,1,.771-3.185,8.174,8.174,0,0,1,2.084-2.578,9.9,9.9,0,0,1,3.063-1.721,11.4,11.4,0,0,1,7.463,0,9.9,9.9,0,0,1,3.063,1.721,8.174,8.174,0,0,1,2.084,2.578,6.978,6.978,0,0,1,.771,3.185h-.87a6.116,6.116,0,0,0-.677-2.791,7.309,7.309,0,0,0-1.865-2.3,9.033,9.033,0,0,0-2.8-1.569,10.53,10.53,0,0,0-6.885,0,9.033,9.033,0,0,0-2.8,1.569,7.309,7.309,0,0,0-1.865,2.3,6.115,6.115,0,0,0-.677,2.791c0,1.027,1.611,1.674,2.572,1.969a16.982,16.982,0,0,0,2.877.58,28.466,28.466,0,0,0,6.661,0,16.981,16.981,0,0,0,2.877-.58c.961-.295,2.572-.942,2.572-1.969h.87a1.9,1.9,0,0,1-.266.964,2.775,2.775,0,0,1-.692.769,6.885,6.885,0,0,1-2.23,1.068A23.016,23.016,0,0,1,108.924,68.29Z" transform="translate(-74.898 -42.674)" fill="#434444"/>
    <path id="Path_221" data-name="Path 221" d="M119.476,66.012c0-4.24-4.126-7.677-9.215-7.677s-9.215,3.437-9.215,7.677,18.43,4.24,18.43,0" transform="translate(-76.236 -44.011)" fill="#d77d71"/>
    <path id="Path_222" data-name="Path 222" d="M108.924,68.29a23.016,23.016,0,0,1-6.463-.814,6.885,6.885,0,0,1-2.23-1.068,2.774,2.774,0,0,1-.692-.769,1.9,1.9,0,0,1-.266-.964,6.978,6.978,0,0,1,.771-3.185,8.174,8.174,0,0,1,2.084-2.578,9.9,9.9,0,0,1,3.063-1.721,11.4,11.4,0,0,1,7.463,0,9.9,9.9,0,0,1,3.063,1.721,8.174,8.174,0,0,1,2.084,2.578,6.978,6.978,0,0,1,.771,3.185,1.9,1.9,0,0,1-.266.964,2.775,2.775,0,0,1-.692.769,6.885,6.885,0,0,1-2.23,1.068A23.016,23.016,0,0,1,108.924,68.29Zm0-10.857a10.329,10.329,0,0,0-3.442.579,9.033,9.033,0,0,0-2.8,1.569,7.309,7.309,0,0,0-1.865,2.3,6.115,6.115,0,0,0-.677,2.791c0,1.027,1.612,1.674,2.572,1.969a16.981,16.981,0,0,0,2.877.58,28.467,28.467,0,0,0,6.661,0,16.981,16.981,0,0,0,2.877-.58c.961-.295,2.572-.942,2.572-1.969a6.116,6.116,0,0,0-.677-2.791,7.309,7.309,0,0,0-1.865-2.3,9.033,9.033,0,0,0-2.8-1.569A10.329,10.329,0,0,0,108.924,57.433Z" transform="translate(-74.898 -42.674)" fill="#434444"/>
    <path id="Path_223" data-name="Path 223" d="M28.168,23.377a5.027,5.027,0,1,1-5.026-4.893h0a4.96,4.96,0,0,1,5.025,4.892Z" transform="translate(-13.669 -13.945)" fill="#cc675d"/>
    <path id="Path_224" data-name="Path 224" d="M21.805,27.367a5.545,5.545,0,0,1-2.122-.417,5.452,5.452,0,0,1-1.735-1.139,5.3,5.3,0,0,1-1.173-1.694,5.224,5.224,0,0,1,0-4.156,5.3,5.3,0,0,1,1.173-1.694,5.452,5.452,0,0,1,1.735-1.139,5.6,5.6,0,0,1,4.244,0,5.452,5.452,0,0,1,1.735,1.139,5.3,5.3,0,0,1,1.173,1.694,5.225,5.225,0,0,1,0,4.156,5.3,5.3,0,0,1-1.173,1.694,5.452,5.452,0,0,1-1.735,1.139A5.545,5.545,0,0,1,21.805,27.367Zm0-9.785a4.63,4.63,0,0,0-3.25,1.31,4.366,4.366,0,0,0,0,6.3,4.688,4.688,0,0,0,6.5,0,4.366,4.366,0,0,0,0-6.3A4.629,4.629,0,0,0,21.806,17.582Z" transform="translate(-12.332 -12.608)" fill="#434444"/>
    <path id="Path_225" data-name="Path 225" d="M23.143,18.483a4.894,4.894,0,1,1-5.026,4.893,4.96,4.96,0,0,1,5.026-4.893" transform="translate(-13.669 -13.945)" fill="#d77d71"/>
    <path id="Ellipse_27" data-name="Ellipse 27" d="M3.688-1.773a5.545,5.545,0,0,1,2.122.417A5.452,5.452,0,0,1,7.546-.216,5.3,5.3,0,0,1,8.718,1.477a5.224,5.224,0,0,1,0,4.156A5.3,5.3,0,0,1,7.546,7.327,5.452,5.452,0,0,1,5.81,8.466a5.6,5.6,0,0,1-4.244,0A5.452,5.452,0,0,1-.169,7.327,5.3,5.3,0,0,1-1.342,5.633a5.224,5.224,0,0,1,0-4.156A5.3,5.3,0,0,1-.169-.216,5.452,5.452,0,0,1,1.566-1.355,5.545,5.545,0,0,1,3.688-1.773Zm0,9.785A4.63,4.63,0,0,0,6.939,6.7a4.366,4.366,0,0,0,0-6.3A4.629,4.629,0,0,0,3.688-.9,4.629,4.629,0,0,0,.438.408a4.366,4.366,0,0,0,0,6.3A4.63,4.63,0,0,0,3.688,8.013Z" transform="translate(5.785 5.876)" fill="#434444"/>
    <path id="Path_226" data-name="Path 226" d="M20.2,66.009c0-4.24-4.126-7.677-9.215-7.677s-9.215,3.437-9.215,7.677,18.43,4.24,18.43,0" transform="translate(-1.337 -44.009)" fill="#cc675d"/>
    <path id="Path_227" data-name="Path 227" d="M9.65,68.287a23.016,23.016,0,0,1-6.463-.814A6.885,6.885,0,0,1,.957,66.4a2.774,2.774,0,0,1-.692-.769A1.9,1.9,0,0,1,0,64.672a6.978,6.978,0,0,1,.771-3.185,8.174,8.174,0,0,1,2.084-2.578,9.9,9.9,0,0,1,3.063-1.721,11.4,11.4,0,0,1,7.463,0,9.9,9.9,0,0,1,3.063,1.721,8.174,8.174,0,0,1,2.084,2.578,6.978,6.978,0,0,1,.771,3.185h-.87a6.116,6.116,0,0,0-.677-2.791,7.309,7.309,0,0,0-1.865-2.3,9.033,9.033,0,0,0-2.8-1.569,10.53,10.53,0,0,0-6.885,0,9.033,9.033,0,0,0-2.8,1.569,7.309,7.309,0,0,0-1.865,2.3A6.115,6.115,0,0,0,.87,64.672c0,1.027,1.611,1.674,2.572,1.969a16.981,16.981,0,0,0,2.877.58,27.479,27.479,0,0,0,3.331.2,27.479,27.479,0,0,0,3.331-.2,16.981,16.981,0,0,0,2.877-.58c.961-.295,2.572-.942,2.572-1.969h.87a1.9,1.9,0,0,1-.266.964,2.774,2.774,0,0,1-.692.769,6.885,6.885,0,0,1-2.23,1.068A23.016,23.016,0,0,1,9.65,68.287Z" transform="translate(0 -42.672)" fill="#434444"/>
    <path id="Path_228" data-name="Path 228" d="M20.2,66.009c0-4.24-4.126-7.677-9.215-7.677s-9.215,3.437-9.215,7.677,18.43,4.24,18.43,0" transform="translate(-1.337 -44.009)" fill="#d77d71"/>
    <path id="Path_229" data-name="Path 229" d="M9.65,68.287a23.017,23.017,0,0,1-6.463-.814A6.885,6.885,0,0,1,.957,66.4a2.775,2.775,0,0,1-.692-.769A1.9,1.9,0,0,1,0,64.672a6.978,6.978,0,0,1,.771-3.185,8.174,8.174,0,0,1,2.084-2.578,9.9,9.9,0,0,1,3.063-1.721,11.4,11.4,0,0,1,7.463,0,9.9,9.9,0,0,1,3.063,1.721,8.174,8.174,0,0,1,2.084,2.578,6.978,6.978,0,0,1,.771,3.185,1.9,1.9,0,0,1-.266.964,2.775,2.775,0,0,1-.692.769,6.885,6.885,0,0,1-2.23,1.068A23.017,23.017,0,0,1,9.65,68.287Zm0-10.857a10.329,10.329,0,0,0-3.442.579,9.033,9.033,0,0,0-2.8,1.569,7.309,7.309,0,0,0-1.865,2.3A6.115,6.115,0,0,0,.87,64.672c0,1.027,1.612,1.674,2.572,1.969a16.981,16.981,0,0,0,2.877.58,27.48,27.48,0,0,0,3.331.2,27.48,27.48,0,0,0,3.331-.2,16.981,16.981,0,0,0,2.877-.58c.961-.295,2.572-.942,2.572-1.969a6.116,6.116,0,0,0-.677-2.791,7.309,7.309,0,0,0-1.865-2.3,9.032,9.032,0,0,0-2.8-1.569A10.329,10.329,0,0,0,9.65,57.43Z" transform="translate(0 -42.672)" fill="#434444"/>
  </g>
</svg>
