<svg xmlns="http://www.w3.org/2000/svg" width="33.438" height="34.087" viewBox="0 0 33.438 34.087">
  <g id="Group_307" data-name="Group 307" transform="translate(-310.515 -745.24)">
    <path id="Path_154" data-name="Path 154" d="M32.351,1.064,5.343,0a1.492,1.492,0,0,0-.494.063L0,3.126,5.129,6.58a1.614,1.614,0,0,0,.5.1L32.639,7.745A1.2,1.2,0,0,0,34.007,6.6l-.184-4.274A1.464,1.464,0,0,0,32.351,1.064Z" transform="matrix(0.695, -0.719, 0.719, 0.695, 312.636, 771.825)" fill="none" stroke="#555556" stroke-linecap="square" stroke-linejoin="round" stroke-width="3"/>
    <path id="Path_156" data-name="Path 156" d="M0,0,.074,5.6" transform="matrix(-0.682, 0.731, -0.731, -0.682, 336.965, 756.82)" fill="none" stroke="#555556" stroke-linecap="square" stroke-width="3"/>
  </g>
</svg>
