<svg xmlns="http://www.w3.org/2000/svg" width="31.972" height="31.998" viewBox="0 0 31.972 31.998">
  <g id="ResetPswd" transform="translate(-59 -523.601)">
    <path id="Subtraction_1" data-name="Subtraction 1" d="M-6181.1,1433.975h-9.824c.914-3.372,2.427-4.875,4.906-4.875a4.136,4.136,0,0,1,3.116,1.2,8.092,8.092,0,0,1,1.8,3.67Z" transform="translate(6261 -897.375)" fill="rgba(0,0,0,0)" stroke="#555556" stroke-width="1.68"/>
    <path id="Path_103" data-name="Path 103" d="M15.988,19.211h-.005a.3.3,0,0,1-.3-.3V17.7a.3.3,0,0,1,.3-.3h.005a.3.3,0,0,1,.3.3v1.213a.3.3,0,0,1-.3.3" transform="translate(59 523.616)" fill="#f6f5f5" stroke="#555556" stroke-width="1"/>
    <path id="Rectangle_25" data-name="Rectangle 25" d="M.3,0H.3A.3.3,0,0,1,.6.3V1.511a.3.3,0,0,1-.3.3H.3a.3.3,0,0,1-.3-.3V.3A.3.3,0,0,1,.3,0Z" transform="translate(74.687 541.02)" fill="none" stroke="#555556" stroke-width="1.68"/>
    <path id="Path_104" data-name="Path 104" d="M28,5.071l-.333,3.088-2.816-.211" transform="translate(59 523.601)" fill="none" stroke="#555556" stroke-linecap="round" stroke-linejoin="round" stroke-width="1.998"/>
    <path id="Path_105" data-name="Path 105" d="M2.651,22.183A14.268,14.268,0,0,1,1,15.5,14.609,14.609,0,0,1,15.713,1,14.771,14.771,0,0,1,26.884,6.062" transform="translate(59 523.601)" fill="none" stroke="#555556" stroke-linecap="round" stroke-linejoin="round" stroke-width="1.998"/>
    <path id="Path_106" data-name="Path 106" d="M29.33,9.809a14.272,14.272,0,0,1,1.643,6.685A14.608,14.608,0,0,1,16.238,30.973,14.774,14.774,0,0,1,5.074,25.894" transform="translate(59 523.627)" fill="none" stroke="#555556" stroke-linecap="round" stroke-linejoin="round" stroke-width="1.998"/>
    <path id="Path_107" data-name="Path 107" d="M4.458,28.451l.337-3.088,2.816.216" transform="translate(59 523.627)" fill="none" stroke="#555556" stroke-linecap="round" stroke-linejoin="round" stroke-width="1.998"/>
    <path id="Path_102" data-name="Path 102" d="M20.053,21.856H11.919A2.766,2.766,0,0,1,9.161,19.1V15.71a2.766,2.766,0,0,1,2.758-2.758h8.134a2.766,2.766,0,0,1,2.758,2.758V19.1a2.766,2.766,0,0,1-2.758,2.758" transform="translate(59 523.616)" fill="none" stroke="#555556" stroke-width="1.68"/>
  </g>
</svg>
