<svg xmlns="http://www.w3.org/2000/svg" width="31.336" height="18.971" viewBox="0 0 31.336 18.971">
  <g id="Group_308" data-name="Group 308" transform="translate(-178.011 -127.557)">
    <path id="Path_347" data-name="Path 347" d="M294.995,21.05l4.1,5.933a1.61,1.61,0,0,1-.022,1.874l-4.075,5.625" transform="translate(-91.393 109.276)" fill="none" stroke="#555556" stroke-linecap="round" stroke-linejoin="round" stroke-width="2.6"/>
    <g id="Settings_icon" data-name="Settings icon" transform="translate(178.011 127.557)">
      <path id="Ellipse_4" data-name="Ellipse 4" d="M1.947-6.035A7.917,7.917,0,0,1,9.93,1.8,7.917,7.917,0,0,1,1.947,9.629,7.917,7.917,0,0,1-6.035,1.8,7.917,7.917,0,0,1,1.947-6.035Zm0,10.762A3.012,3.012,0,0,0,5.028,1.8a3.012,3.012,0,0,0-3.08-2.93A3.012,3.012,0,0,0-1.133,1.8,3.012,3.012,0,0,0,1.947,4.727Z" transform="translate(8.137 7.747)" fill="#555556"/>
      <path id="Path_76" data-name="Path 76" d="M266.29,123.444l2.079-1.324a1.537,1.537,0,0,1,1.157.236s2.335,3.472,1.637,3.919l-2.079,1.324c-.589.374-3.034-3.026-3.034-3.026a.8.8,0,0,1,.24-1.125Z" transform="translate(-255.174 -109.473)" fill="#555556"/>
      <path id="Path_76_-_Outline" data-name="Path 76 - Outline" d="M267.4,120.069a2.977,2.977,0,0,1,.773.116,1.418,1.418,0,0,1,.832.511l.007.011c.021.03.508.756.98,1.6a11.969,11.969,0,0,1,.657,1.336,2.48,2.48,0,0,1,.241,1.413,1.1,1.1,0,0,1-.478.711l-2.081,1.325a1.014,1.014,0,0,1-.545.156c-.5,0-1.1-.309-2.363-1.819-.653-.778-1.2-1.543-1.227-1.575l-.014-.02a1.616,1.616,0,0,1,.1-1.938V121.8l2.457-1.565A1.2,1.2,0,0,1,267.4,120.069Zm.352,1.693a1.611,1.611,0,0,0-.28-.057l-1.559.993v0l-.368.237c.1.142.516.7,1,1.29a9.341,9.341,0,0,0,1.217,1.294l1.485-.946a7.8,7.8,0,0,0-.734-1.567C268.207,122.474,267.9,121.993,267.75,121.762Z" transform="translate(-253.979 -108.279)" fill="#555556"/>
      <path id="Path_77" data-name="Path 77" d="M275.378,113.064l-.179-2.412a1.468,1.468,0,0,1,.772-.869s4.252-.3,4.313.516l.179,2.412c.049.682-4.2,1.1-4.2,1.1a.829.829,0,0,1-.893-.751Z" transform="translate(-260.688 -102.139)" fill="#555556"/>
      <path id="Path_77_-_Outline" data-name="Path 77 - Outline" d="M275.012,113.44a1.647,1.647,0,0,1-1.647-1.511l-.064-.876h0l-.114-1.536a1.426,1.426,0,0,1,.471-1.083,1.641,1.641,0,0,1,1.057-.66c.033,0,.8-.055,1.7-.055a12.411,12.411,0,0,1,1.908.119,3.194,3.194,0,0,1,.856.242,1.151,1.151,0,0,1,.727.963l.179,2.415a1.067,1.067,0,0,1-.517.973,2.763,2.763,0,0,1-.665.316,10.943,10.943,0,0,1-1.566.38c-1.075.194-2.136.3-2.18.306l-.023,0C275.091,113.439,275.051,113.44,275.012,113.44ZM275,111.8a.033.033,0,0,0,.013,0c.125-.013.865-.092,1.669-.223a9.985,9.985,0,0,0,1.745-.4L278.3,109.5a8.394,8.394,0,0,0-1.887-.145c-.6,0-1.147.026-1.412.041a1.608,1.608,0,0,0-.169.188Z" transform="translate(-259.493 -100.945)" fill="#555556"/>
      <path id="Path_78" data-name="Path 78" d="M269.363,99.087l-2.075-1.324a1.424,1.424,0,0,1-.24-1.125s2.339-3.472,3.038-3.026l2.075,1.324c.585.374-1.641,3.915-1.641,3.915A.855.855,0,0,1,269.363,99.087Z" transform="translate(-255.822 -92.543)" fill="#555556"/>
      <path id="Path_78_-_Outline" data-name="Path 78 - Outline" d="M268.624,98.84a1.667,1.667,0,0,1-.891-.257l0,0-2.075-1.324a1.591,1.591,0,0,1-.6-1.072,1.432,1.432,0,0,1,.124-1.2c.022-.032.543-.8,1.178-1.59,1.055-1.3,1.748-1.836,2.393-1.836a1.08,1.08,0,0,1,.584.168l2.074,1.323a1.065,1.065,0,0,1,.474.994,2.649,2.649,0,0,1-.147.719,10.35,10.35,0,0,1-.642,1.449c-.493.951-1.05,1.839-1.073,1.876l-.014.022A1.657,1.657,0,0,1,268.624,98.84Zm-.019-1.637a.035.035,0,0,0,.019,0,.048.048,0,0,0,.024-.006c.074-.119.448-.725.819-1.41a9.614,9.614,0,0,0,.727-1.574l-1.48-.944a7.6,7.6,0,0,0-1.206,1.3c-.382.483-.714.95-.875,1.181a1.56,1.56,0,0,0,.049.226Z" transform="translate(-254.628 -91.35)" fill="#555556"/>
      <path id="Path_79" data-name="Path 79" d="M255.519,97.431l-2.181,1.153a1.531,1.531,0,0,1-1.133-.325s-2.035-3.647-1.3-4.037l2.181-1.153c.617-.325,2.77,3.261,2.77,3.261a.8.8,0,0,1-.337,1.1Z" transform="translate(-246.166 -92.232)" fill="#555556"/>
      <path id="Path_79_-_Outline" data-name="Path 79 - Outline" d="M251.992,98.233a2.8,2.8,0,0,1-.84-.16,1.444,1.444,0,0,1-.852-.607v0c-.018-.032-.442-.794-.841-1.673a11.915,11.915,0,0,1-.542-1.384,2.484,2.484,0,0,1-.122-1.427,1.1,1.1,0,0,1,.536-.671l2.182-1.154a1.012,1.012,0,0,1,.47-.116c.632,0,1.248.538,2.273,1.985.592.836,1.087,1.658,1.108,1.693l.013.023a1.6,1.6,0,0,1,.136,1.247,1.615,1.615,0,0,1-.806.973l-2.184,1.155A1.12,1.12,0,0,1,251.992,98.233Zm-.352-1.719a1.736,1.736,0,0,0,.271.077l2.028-1.072c-.094-.154-.456-.743-.885-1.363a9.336,9.336,0,0,0-1.1-1.387l-1.561.825a7.726,7.726,0,0,0,.6,1.621C251.245,95.769,251.509,96.271,251.64,96.514Z" transform="translate(-244.971 -91.039)" fill="#555556"/>
      <path id="Path_80" data-name="Path 80" d="M246.564,109.778l.179,2.412a1.468,1.468,0,0,1-.772.869s-4.252.3-4.313-.516l-.179-2.412c-.049-.682,4.2-1.1,4.2-1.1a.829.829,0,0,1,.893.751Z" transform="translate(-240.663 -101.72)" fill="#555556"/>
      <path id="Path_80_-_Outline" data-name="Path 80 - Outline" d="M244.542,107.015a1.647,1.647,0,0,1,1.647,1.511l.064.876h0l.114,1.536a1.426,1.426,0,0,1-.471,1.083,1.641,1.641,0,0,1-1.057.66c-.033,0-.8.055-1.7.055a12.413,12.413,0,0,1-1.908-.119,3.194,3.194,0,0,1-.856-.242,1.151,1.151,0,0,1-.727-.963L239.472,109a1.066,1.066,0,0,1,.517-.973,2.764,2.764,0,0,1,.665-.316,10.939,10.939,0,0,1,1.566-.38c1.075-.194,2.136-.3,2.18-.305l.023,0C244.463,107.016,244.5,107.015,244.542,107.015Zm.015,1.636a.033.033,0,0,0-.013,0c-.125.013-.865.092-1.669.223a9.984,9.984,0,0,0-1.745.4l.125,1.687a8.393,8.393,0,0,0,1.887.145c.6,0,1.147-.026,1.412-.041a1.608,1.608,0,0,0,.169-.188Z" transform="translate(-239.469 -100.526)" fill="#555556"/>
      <path id="Path_81" data-name="Path 81" d="M252.451,121.475l2.136,1.235a1.414,1.414,0,0,1,.292,1.113s-2.177,3.57-2.9,3.156l-2.136-1.235c-.605-.349,1.458-3.984,1.458-3.984A.851.851,0,0,1,252.451,121.475Z" transform="translate(-245.567 -109.047)" fill="#555556"/>
      <path id="Path_81_-_Outline" data-name="Path 81 - Outline" d="M250.831,119.351a1.677,1.677,0,0,1,.831.221l0,0,2.136,1.235a1.6,1.6,0,0,1,.652,1.048,1.425,1.425,0,0,1-.072,1.2c-.034.056-.52.848-1.114,1.652a10.871,10.871,0,0,1-.99,1.187,1.971,1.971,0,0,1-1.357.739,1.079,1.079,0,0,1-.538-.142l-2.137-1.235a1.067,1.067,0,0,1-.519-.969,2.637,2.637,0,0,1,.113-.726,10.275,10.275,0,0,1,.575-1.477c.449-.972.965-1.883.987-1.922l.013-.022A1.666,1.666,0,0,1,250.831,119.351Zm.02,1.638a.041.041,0,0,0-.02-.005.041.041,0,0,0-.021.005c-.068.121-.414.743-.754,1.444a9.514,9.514,0,0,0-.654,1.6l1.527.882a7.613,7.613,0,0,0,1.151-1.355c.358-.5.665-.973.814-1.209a1.54,1.54,0,0,0-.059-.222Z" transform="translate(-244.373 -107.853)" fill="#555556"/>
    </g>
  </g>
</svg>
