<svg xmlns="http://www.w3.org/2000/svg" width="32.813" height="45.738" viewBox="0 0 32.813 45.738">
  <g id="Cleaning" transform="translate(-30.12 -17.594)">
    <path id="Path_41" data-name="Path 41" d="M43.415,34.543c-.281-2.685-9.7-2.685-9.978,0L31,57.893c-.272,2.6,2.04,4.845,4.989,4.845h4.881c2.949,0,5.26-2.245,4.988-4.845Z" transform="translate(-0.257 -0.001)" fill="none" stroke="#555556" stroke-width="1.189"/>
    <path id="Path_42" data-name="Path 42" d="M39.385,32.611H37.552a1.573,1.573,0,0,1-1.566-1.579v-2.22a1.573,1.573,0,0,1,1.566-1.58h1.833a1.573,1.573,0,0,1,1.566,1.58v2.22a1.573,1.573,0,0,1-1.566,1.579" transform="translate(-0.298 -0.001)" fill="#d77d71"/>
    <path id="Rectangle_8" data-name="Rectangle 8" d="M1.579,0H3.385A1.579,1.579,0,0,1,4.964,1.579V3.8a1.58,1.58,0,0,1-1.58,1.58H1.579A1.579,1.579,0,0,1,0,3.8V1.579A1.579,1.579,0,0,1,1.579,0Z" transform="translate(35.688 27.231)" fill="none" stroke="#555556" stroke-width="1.189"/>
    <path id="Path_43" data-name="Path 43" d="M39.427,56.219H37.506a1.844,1.844,0,0,1-1.836-1.851V40.9a1.844,1.844,0,0,1,1.836-1.851h1.921A1.844,1.844,0,0,1,41.262,40.9v13.47a1.844,1.844,0,0,1-1.836,1.851" transform="translate(-0.296 -0.001)" fill="#d77d71"/>
    <path id="Path_53" data-name="Path 53" d="M1.851,0h1.89A1.851,1.851,0,0,1,5.592,1.851v13.47a1.851,1.851,0,0,1-1.851,1.851H1.851A1.851,1.851,0,0,1,0,15.321V1.851A1.851,1.851,0,0,1,1.851,0Z" transform="translate(35.374 39.047)" fill="none" stroke="#555556" stroke-width="1.189"/>
    <path id="Path_44" data-name="Path 44" d="M53.762,32.514a3.758,3.758,0,0,1-7.467,0c0-1.467,2.383-4.736,3.341-5.991a.507.507,0,0,1,.784,0c.958,1.255,3.341,4.524,3.341,5.991" transform="translate(-0.384 -0.001)" fill="#809ead" stroke="#555556" stroke-width="1"/>
    <path id="Path_45" data-name="Path 45" d="M53.762,32.514a3.758,3.758,0,0,1-7.467,0c0-1.467,2.383-4.736,3.341-5.991a.507.507,0,0,1,.784,0C51.379,27.778,53.762,31.047,53.762,32.514Z" transform="translate(-0.384 -0.001)" fill="none" stroke="#555556" stroke-width="1.189"/>
    <path id="Path_46" data-name="Path 46" d="M51.015,38.539l.708,1.831a1.9,1.9,0,0,0,.6.821l1.253.969-1.315,1.017a1.6,1.6,0,0,0-.506.693l-.739,1.911-.685-1.772a2.114,2.114,0,0,0-.668-.916l-1.206-.933,1.4-1.084a1.2,1.2,0,0,0,.378-.518Z" transform="translate(-0.402 -0.001)" fill="#ffe293"/>
    <path id="Path_47" data-name="Path 47" d="M51.015,38.539l.708,1.831a1.9,1.9,0,0,0,.6.821l1.253.969-1.315,1.017a1.6,1.6,0,0,0-.506.693l-.739,1.911-.685-1.772a2.114,2.114,0,0,0-.668-.916l-1.206-.933,1.4-1.084a1.2,1.2,0,0,0,.378-.518Z" transform="translate(-0.402 -0.001)" fill="none" stroke="#555556" stroke-linecap="round" stroke-linejoin="round" stroke-width="1.189"/>
    <path id="Path_48" data-name="Path 48" d="M44.669,18.189l.708,1.831a1.9,1.9,0,0,0,.6.821l1.253.969-1.315,1.017a1.6,1.6,0,0,0-.506.693l-.739,1.911-.685-1.772a2.114,2.114,0,0,0-.668-.916l-1.206-.933,1.4-1.084a1.2,1.2,0,0,0,.378-.518Z" transform="translate(-0.349 -0.001)" fill="#fde8a6"/>
    <path id="Path_49" data-name="Path 49" d="M44.669,18.189l.708,1.831a1.9,1.9,0,0,0,.6.821l1.253.969-1.315,1.017a1.6,1.6,0,0,0-.506.693l-.739,1.911-.685-1.772a2.114,2.114,0,0,0-.668-.916l-1.206-.933,1.4-1.084a1.2,1.2,0,0,0,.378-.518Z" transform="translate(-0.349 -0.001)" fill="none" stroke="#555556" stroke-linecap="round" stroke-linejoin="round" stroke-width="1.189"/>
    <path id="Path_50" data-name="Path 50" d="M60.258,30.128l.708,1.831a1.9,1.9,0,0,0,.6.821l1.253.969L61.5,34.766a1.6,1.6,0,0,0-.506.693l-.739,1.911L59.572,35.6a2.114,2.114,0,0,0-.668-.916L57.7,33.749l1.4-1.084a1.2,1.2,0,0,0,.378-.518Z" transform="translate(-0.478 -0.001)" fill="#fde8a6"/>
    <path id="Path_51" data-name="Path 51" d="M60.258,30.128l.708,1.831a1.9,1.9,0,0,0,.6.821l1.253.969L61.5,34.766a1.6,1.6,0,0,0-.506.693l-.739,1.911L59.572,35.6a2.114,2.114,0,0,0-.668-.916L57.7,33.749l1.4-1.084a1.2,1.2,0,0,0,.378-.518Z" transform="translate(-0.478 -0.001)" fill="none" stroke="#555556" stroke-linecap="round" stroke-linejoin="round" stroke-width="1.189"/>
  </g>
</svg>
