<svg id="GoogleIcon" xmlns="http://www.w3.org/2000/svg" xmlns:xlink="http://www.w3.org/1999/xlink" width="42" height="42" viewBox="0 0 42 42">
  <defs>
    <clipPath id="clip-path">
      <rect id="Rectangle_30" data-name="Rectangle 30" width="42" height="42" fill="none"/>
    </clipPath>
  </defs>
  <g id="Group_79" data-name="Group 79" clip-path="url(#clip-path)">
    <path id="Path_143" data-name="Path 143" d="M40.347,26.079h0v0A20.027,20.027,0,0,0,41,21c0-.446-.02-.887-.049-1.326L22.026,19.44v6.639H32.191a12.377,12.377,0,0,1-3.99,4.88c2.123,1.6,4.173,3.229,6.293,4.8a19.991,19.991,0,0,0,5.853-9.677" fill="#809ead"/>
    <path id="Path_144" data-name="Path 144" d="M40.347,26.079h0v0A20.027,20.027,0,0,0,41,21c0-.446-.02-.887-.049-1.326L22.026,19.44v6.639H32.191a12.377,12.377,0,0,1-3.99,4.88c2.123,1.6,4.173,3.229,6.293,4.8A19.991,19.991,0,0,0,40.347,26.079Z" fill="none" stroke="#243f3b" stroke-width="2"/>
    <path id="Path_145" data-name="Path 145" d="M28.2,30.959a12.215,12.215,0,0,1-7.727,2.328,12.359,12.359,0,0,1-9.947-5.9q-3.253,2.093-6.412,4.279a19.95,19.95,0,0,0,30.379,4.092c-2.121-1.568-4.171-3.2-6.293-4.8" fill="#719991"/>
    <path id="Path_146" data-name="Path 146" d="M28.2,30.959a12.215,12.215,0,0,1-7.727,2.328,12.359,12.359,0,0,1-9.947-5.9q-3.253,2.093-6.412,4.279a19.95,19.95,0,0,0,30.379,4.092C32.374,34.188,30.324,32.56,28.2,30.959Z" fill="none" stroke="#434344" stroke-width="2"/>
    <path id="Path_147" data-name="Path 147" d="M8.717,21.616a12.253,12.253,0,0,1,2.091-7.5L4.948,9.067a19.9,19.9,0,0,0-.832,22.6q3.165-2.181,6.412-4.279a12.087,12.087,0,0,1-1.811-5.769" fill="#fde8a6"/>
    <path id="Path_148" data-name="Path 148" d="M8.717,21.616a12.253,12.253,0,0,1,2.091-7.5L4.948,9.067a19.9,19.9,0,0,0-.832,22.6q3.165-2.181,6.412-4.279A12.087,12.087,0,0,1,8.717,21.616Z" fill="none" stroke="#243f3b" stroke-linecap="round" stroke-linejoin="round" stroke-width="2"/>
    <path id="Path_149" data-name="Path 149" d="M4.948,9.068l5.859,5.049A12.287,12.287,0,0,1,21,8.7c2.542,0,4.894.782,9.009,4.038L34.66,6.578C29.249,2.351,25.283,1,21,1A19.971,19.971,0,0,0,4.948,9.068" fill="#d77d71"/>
    <path id="Path_150" data-name="Path 150" d="M4.948,9.068l5.859,5.049A12.287,12.287,0,0,1,21,8.7c2.542,0,4.894.782,9.009,4.038L34.66,6.578C29.249,2.351,25.283,1,21,1A19.971,19.971,0,0,0,4.948,9.068" fill="none" stroke="#434344" stroke-width="2"/>
  </g>
</svg>
