<svg xmlns="http://www.w3.org/2000/svg" xmlns:xlink="http://www.w3.org/1999/xlink" width="311.073" height="212.293" viewBox="0 0 311.073 212.293">
  <defs>
    <clipPath id="clip-path">
      <rect id="Rectangle_97" data-name="Rectangle 97" width="116.376" height="111.911" fill="none" stroke="#555556" stroke-width="1"/>
    </clipPath>
  </defs>
  <g id="Magnifier" transform="translate(0.3 0.229)">
    <path id="Path_328" data-name="Path 328" d="M17.085,23.838c-.63,4.411-1.26,14.493,13.863,27.727" transform="translate(-2.136 -3.036)" fill="none" stroke="#555556" stroke-linecap="round" stroke-linejoin="round" stroke-width="4"/>
    <path id="Path_329" data-name="Path 329" d="M264.816,107.059s18.632-7.782,32.005-23.389" transform="translate(-34.022 -10.73)" fill="none" stroke="#555556" stroke-linecap="round" stroke-linejoin="round" stroke-width="4"/>
    <path id="Path_330" data-name="Path 330" d="M285.324,135.076c-7.331,7.77-13.591,16.488-24.944,18.155-8.4,1.232-15.336-2.422-19.848-5.256-2.193-1.378-2.531-4.027-1.713-6.486,1.644-4.944,7.6-14.595,18.73-11.255,24.488,7.348,23.438,3.8,27.622,4.393" transform="translate(-30.627 -16.629)" fill="#719991" stroke="#555556" stroke-width="1"/>
    <path id="Path_331" data-name="Path 331" d="M285.324,135.076c-7.331,7.77-13.591,16.488-24.944,18.155-8.4,1.232-15.336-2.422-19.848-5.256-2.193-1.378-2.531-4.027-1.713-6.486,1.644-4.944,7.6-14.595,18.73-11.255,24.488,7.348,23.438,3.8,27.622,4.393" transform="translate(-30.627 -16.629)" fill="none" stroke="#555556" stroke-linecap="round" stroke-linejoin="round" stroke-width="4"/>
    <path id="Path_332" data-name="Path 332" d="M228.325,146.262c6.394-1.266,12.8-1.054,19.255-1.1,6.351-.381,12.872-.924,19.027-2.615.186-.109.377.193.173.3-4.459,2.157-9.283,3.166-14.079,4.3-4.879.751-9.74,1.865-14.709,1.567a32.836,32.836,0,0,1-9.695-2.109.184.184,0,0,1,.028-.348" transform="translate(-29.312 -18.298)" fill="#555556" stroke="#555556" stroke-width="1"/>
    <path id="Path_333" data-name="Path 333" d="M348.452,26.539a.269.269,0,0,1,.363.307c-2.293,10.434-3.179,21.13-12.06,28.4-6.568,5.374-14.4,5.809-19.726,5.7-2.59-.054-4.242-2.152-4.8-4.681-1.132-5.087-.985-16.427,10.277-19.285,24.781-6.288,22.058-8.787,25.95-10.434" transform="translate(-40.059 -3.381)" fill="#719991" stroke="#555556" stroke-width="1"/>
    <path id="Path_334" data-name="Path 334" d="M348.452,26.539a.269.269,0,0,1,.363.307c-2.293,10.434-3.179,21.13-12.06,28.4-6.568,5.374-14.4,5.809-19.726,5.7-2.59-.054-4.242-2.152-4.8-4.681-1.132-5.087-.985-16.427,10.277-19.285C347.282,30.685,344.56,28.186,348.452,26.539Z" transform="translate(-40.059 -3.381)" fill="none" stroke="#555556" stroke-linecap="round" stroke-linejoin="round" stroke-width="4"/>
    <path id="Path_335" data-name="Path 335" d="M204.24,229.266l5.848-3.162a9.6,9.6,0,0,0,4-12.975l-28.162-52.077c-1.1-2.027-3.869-2.652-6.193-1.394l-14.473,7.826c-2.324,1.257-3.32,3.92-2.224,5.947l28.162,52.077a9.6,9.6,0,0,0,13.046,3.759" transform="translate(-20.877 -20.417)" fill="#d77d71" stroke="#555556" stroke-width="1"/>
    <path id="Path_336" data-name="Path 336" d="M204.24,229.266l5.848-3.162a9.6,9.6,0,0,0,4-12.975l-28.162-52.077c-1.1-2.027-3.869-2.652-6.193-1.394l-14.473,7.826c-2.324,1.257-3.32,3.92-2.224,5.947l28.162,52.077A9.6,9.6,0,0,0,204.24,229.266Z" transform="translate(-20.877 -20.417)" fill="none" stroke="#555556" stroke-linecap="round" stroke-linejoin="round" stroke-width="4"/>
    <rect id="Rectangle_95" data-name="Rectangle 95" width="13.477" height="18.692" transform="matrix(0.881, -0.473, 0.473, 0.881, 137.079, 129.616)" fill="#d77d71" stroke="#555556" stroke-width="1"/>
    <rect id="Rectangle_96" data-name="Rectangle 96" width="13.477" height="18.692" transform="matrix(0.881, -0.473, 0.473, 0.881, 137.079, 129.616)" fill="none" stroke="#555556" stroke-linecap="round" stroke-linejoin="round" stroke-width="4"/>
    <path id="Path_337" data-name="Path 337" d="M2.676,22.545A20.749,20.749,0,0,0,2,27.127" transform="translate(-0.229 -2.87)" fill="none" stroke="#555556" stroke-linecap="round" stroke-linejoin="round" stroke-width="4"/>
    <path id="Path_338" data-name="Path 338" d="M3.674,38.426c12,35.764,94.181,77.194,129.975,57.3,14.318-7.959,24.984-26.549,11.749-41.783-12.827-14.764-34.041-11-48.369,1.582-15.573,13.68-12.466,41.9,2.332,52.752,25.133,18.437,93.376,10.857,154.684-39.793" transform="translate(-0.444 -4.912)" fill="none" stroke="#555556" stroke-linecap="round" stroke-linejoin="round" stroke-width="4" stroke-dasharray="10.813 10.813"/>
    <path id="Path_339" data-name="Path 339" d="M295.127,68.984q1.753-1.5,3.5-3.055" transform="translate(-37.92 -8.449)" fill="none" stroke="#555556" stroke-linecap="round" stroke-linejoin="round" stroke-width="4"/>
    <g id="Group_250" data-name="Group 250" transform="translate(53.29 15.704)" opacity="0.28">
      <g id="Group_249" data-name="Group 249">
        <g id="Group_248" data-name="Group 248" clip-path="url(#clip-path)">
          <path id="Path_340" data-name="Path 340" d="M119.567,19.988c-31.125,0-56.447,24.32-56.447,54.213s25.322,54.213,56.447,54.213,56.444-24.32,56.444-54.213S150.69,19.988,119.567,19.988" transform="translate(-61.378 -18.245)" fill="#6c8d9d" stroke="#555556" stroke-width="1"/>
          <path id="Path_341" data-name="Path 341" d="M119.567,19.988c-31.125,0-56.447,24.32-56.447,54.213s25.322,54.213,56.447,54.213,56.444-24.32,56.444-54.213S150.69,19.988,119.567,19.988Z" transform="translate(-61.378 -18.245)" fill="none" stroke="#555556" stroke-width="4"/>
        </g>
      </g>
    </g>
    <path id="Path_342" data-name="Path 342" d="M117.332,139.528c39.476,0,71.595-30.847,71.595-68.764S156.808,2,117.332,2s-71.6,30.847-71.6,68.764,32.119,68.764,71.6,68.764M116.708,16.7c31.123,0,56.444,24.32,56.444,54.213s-25.322,54.213-56.444,54.213S60.261,100.8,60.261,70.911,85.583,16.7,116.708,16.7" transform="translate(-5.852 -0.229)" fill="#d77d71" stroke="#555556" stroke-width="1"/>
    <path id="Path_343" data-name="Path 343" d="M117.332,139.528c39.476,0,71.595-30.847,71.595-68.764S156.808,2,117.332,2s-71.6,30.847-71.6,68.764S77.853,139.528,117.332,139.528ZM116.708,16.7c31.123,0,56.444,24.32,56.444,54.213s-25.322,54.213-56.444,54.213S60.261,100.8,60.261,70.911,85.583,16.7,116.708,16.7Z" transform="translate(-5.852 -0.229)" fill="none" stroke="#555556" stroke-width="4"/>
    <path id="Path_344" data-name="Path 344" d="M305.082,65.73c4.833-4.374,10.433-7.483,15.951-10.84,5.251-3.592,10.565-7.411,14.974-12.026.1-.19.423-.029.3.171-3.648,5.341-8.659,10-13.632,14.107-2.555,2.046-5.056,4.273-8.043,5.725a32.813,32.813,0,0,1-9.4,3.176.184.184,0,0,1-.154-.313" transform="translate(-39.192 -5.472)" fill="#555556" stroke="#555556" stroke-width="1"/>
    <line id="Line_21" data-name="Line 21" x2="23.802" y2="44.241" transform="translate(161.904 147.423)" fill="none" stroke="#eeeded" stroke-linecap="round" stroke-linejoin="round" stroke-width="3"/>
    <path id="Path_345" data-name="Path 345" d="M73.57,24.507A66.123,66.123,0,0,1,149.091,14.8M59.045,44.421a62.945,62.945,0,0,1,6.8-11.355" transform="translate(-7.564 -0.891)" fill="none" stroke="#eeeded" stroke-linecap="round" stroke-linejoin="round" stroke-width="3"/>
  </g>
</svg>
