<svg xmlns="http://www.w3.org/2000/svg" width="19.989" height="20.395" viewBox="0 0 19.989 20.395">
  <g id="Group_310" data-name="Group 310" transform="translate(-171.93 -185.669)">
    <path id="Path_356" data-name="Path 356" d="M19.645,0,3.313.02a.937.937,0,0,0-.3.05L0,2.038,3.022,4a.938.938,0,0,0,.3.049l16.332-.02a.8.8,0,0,0,.857-.727L20.505.725A.8.8,0,0,0,19.645,0Z" transform="matrix(0.695, -0.719, 0.719, 0.695, 173.344, 201.839)" fill="none" stroke="#555556" stroke-linecap="square" stroke-linejoin="round" stroke-width="2"/>
    <path id="Path_357" data-name="Path 357" d="M.092,0,0,3.376" transform="matrix(-0.682, 0.731, -0.731, -0.682, 187.686, 192.377)" fill="none" stroke="#555556" stroke-linecap="square" stroke-width="2"/>
  </g>
</svg>
