<svg xmlns="http://www.w3.org/2000/svg" width="50.67" height="46.554" viewBox="0 0 50.67 46.554">
  <g id="SettingsWhite" transform="translate(-232.33 -192.149)">
    <ellipse id="Ellipse_5" data-name="Ellipse 5" cx="13.61" cy="13.25" rx="13.61" ry="13.25" transform="translate(243.53 202.33)" fill="none" stroke="#eeeded" stroke-width="12.06"/>
    <path id="Path_84" data-name="Path 84" d="M259.67,226.47l5.11-3.26a3.752,3.752,0,0,1,2.84.58s5.75,8.54,4.03,9.64l-5.11,3.26c-1.44.92-7.47-7.45-7.47-7.45a1.971,1.971,0,0,1,.59-2.77Z" fill="#eeeded" stroke="#eeeded" stroke-width="4.02"/>
    <path id="Path_85" data-name="Path 85" d="M268.48,218.98l-.44-5.93a3.615,3.615,0,0,1,1.9-2.14s10.47-.73,10.61,1.27l.44,5.93c.12,1.68-10.32,2.72-10.32,2.72a2.046,2.046,0,0,1-2.2-1.85Z" fill="#eeeded" stroke="#eeeded" stroke-width="4.02"/>
    <path id="Path_86" data-name="Path 86" d="M265.65,208.19l-5.11-3.26a3.507,3.507,0,0,1-.59-2.77s5.76-8.54,7.47-7.45l5.11,3.26c1.44.92-4.04,9.64-4.04,9.64A2.094,2.094,0,0,1,265.65,208.19Z" fill="#eeeded" stroke="#eeeded" stroke-width="4.02"/>
    <path id="Path_87" data-name="Path 87" d="M255.34,204.89l-5.37,2.84a3.746,3.746,0,0,1-2.78-.8s-5.01-8.98-3.2-9.93l5.37-2.84c1.52-.8,6.81,8.02,6.81,8.02a1.972,1.972,0,0,1-.83,2.71Z" fill="#eeeded" stroke="#eeeded" stroke-width="4.02"/>
    <path id="Path_88" data-name="Path 88" d="M246.85,211.92l.44,5.93a3.615,3.615,0,0,1-1.9,2.14s-10.47.73-10.61-1.27l-.44-5.93c-.12-1.68,10.32-2.72,10.32-2.72a2.046,2.046,0,0,1,2.2,1.85Z" fill="#eeeded" stroke="#eeeded" stroke-width="4.02"/>
    <path id="Path_89" data-name="Path 89" d="M249.27,222.67l5.26,3.04a3.473,3.473,0,0,1,.72,2.74s-5.36,8.78-7.12,7.76l-5.26-3.04c-1.48-.86,3.59-9.8,3.59-9.8A2.085,2.085,0,0,1,249.27,222.67Z" fill="#eeeded" stroke="#eeeded" stroke-width="4.02"/>
  </g>
</svg>
