<svg xmlns="http://www.w3.org/2000/svg" width="30" height="30" viewBox="0 0 30 30">
  <path id="Path_135" data-name="Path 135" d="M247.942,3.532h0Zm-.432.924,2.984,6.381a3.517,3.517,0,0,0,2.658,1.992l6.856,1.052L254.932,19.1a3.548,3.548,0,0,0-.954,3.029l1.179,7.252-5.939-3.3a3.521,3.521,0,0,0-3.416,0l-5.938,3.3,1.178-7.252a3.547,3.547,0,0,0-.953-3.029l-5.077-5.223,6.856-1.052a3.517,3.517,0,0,0,2.658-1.992l2.984-6.381m0-2.651a1.5,1.5,0,0,0-1.38.88l-3.415,7.3a1.526,1.526,0,0,1-1.15.862l-7.759,1.19a1.531,1.531,0,0,0-.861,2.581l5.709,5.875a1.532,1.532,0,0,1,.414,1.315l-1.335,8.212a1.532,1.532,0,0,0,1.505,1.78,1.51,1.51,0,0,0,.737-.195l6.8-3.771a1.519,1.519,0,0,1,1.475,0l6.8,3.771a1.51,1.51,0,0,0,.737.195,1.532,1.532,0,0,0,1.5-1.78l-1.335-8.212a1.533,1.533,0,0,1,.414-1.315l5.709-5.875a1.531,1.531,0,0,0-.861-2.581l-7.759-1.19a1.522,1.522,0,0,1-1.149-.862l-3.416-7.3a1.5,1.5,0,0,0-1.38-.88" transform="translate(-232.51 -1.805)" fill="#555556"/>
</svg>
