<svg xmlns="http://www.w3.org/2000/svg" width="26.72" height="34.011" viewBox="0 0 26.72 34.011">
  <path id="Privacy" d="M381.031,2.006a2.579,2.579,0,0,1,1.155.272,31.332,31.332,0,0,0,4.17,1.823,37.061,37.061,0,0,0,4.855.53,1.422,1.422,0,0,1,1.175,1.522v9.788c0,7.732-8.392,14.2-10.747,15.869a1.045,1.045,0,0,1-1.216,0c-2.356-1.664-10.747-8.137-10.747-15.869V6.155a1.424,1.424,0,0,1,1.176-1.524,37.2,37.2,0,0,0,4.854-.53,31.33,31.33,0,0,0,4.17-1.823,2.578,2.578,0,0,1,1.155-.272m0-2.006a4.614,4.614,0,0,0-2.05.483,25.205,25.205,0,0,1-3.788,1.679,32.857,32.857,0,0,1-4.468.467,3.421,3.421,0,0,0-3.054,3.526v9.786c0,8.641,8.874,15.585,11.594,17.507a3.051,3.051,0,0,0,3.532,0c2.72-1.922,11.594-8.866,11.594-17.507V6.153a3.42,3.42,0,0,0-3.053-3.524,32.811,32.811,0,0,1-4.468-.467A25.073,25.073,0,0,1,383.081.483,4.613,4.613,0,0,0,381.031,0" transform="translate(-367.671)" fill="#555556"/>
</svg>
