<svg xmlns="http://www.w3.org/2000/svg" width="31.419" height="28.946" viewBox="0 0 31.419 28.946">
  <g id="OrgSettings" transform="translate(-207.94 -23.298)">
    <g id="Settings_icon" data-name="Settings icon" transform="translate(207.94 23.298)">
      <path id="Ellipse_4" data-name="Ellipse 4" d="M6.145-6.035A12.08,12.08,0,0,1,18.325,5.916a12.08,12.08,0,0,1-12.18,11.95A12.08,12.08,0,0,1-6.035,5.916,12.08,12.08,0,0,1,6.145-6.035Zm0,16.421a4.6,4.6,0,0,0,4.7-4.471,4.6,4.6,0,0,0-4.7-4.471,4.6,4.6,0,0,0-4.7,4.471A4.6,4.6,0,0,0,6.145,10.386Z" transform="translate(9.242 8.648)" fill="#555556"/>
      <path id="Path_76" data-name="Path 76" d="M266.488,124.162l3.173-2.02a2.346,2.346,0,0,1,1.766.359s3.563,5.3,2.5,5.98l-3.173,2.02c-.9.57-4.629-4.617-4.629-4.617a1.221,1.221,0,0,1,.366-1.717Z" transform="translate(-249.526 -102.844)" fill="#555556"/>
      <path id="Path_76_-_Outline" data-name="Path 76 - Outline" d="M269.236,120.069a4.543,4.543,0,0,1,1.179.176,2.163,2.163,0,0,1,1.269.78l.011.016c.031.047.774,1.154,1.495,2.444a18.268,18.268,0,0,1,1,2.039,3.784,3.784,0,0,1,.368,2.156,1.674,1.674,0,0,1-.73,1.086l-3.175,2.021a1.547,1.547,0,0,1-.832.239c-.767,0-1.673-.472-3.605-2.775-1-1.187-1.837-2.354-1.872-2.4l-.022-.031a2.465,2.465,0,0,1,.153-2.958v-.145l3.749-2.387A1.826,1.826,0,0,1,269.236,120.069Zm.538,2.584a2.459,2.459,0,0,0-.427-.086l-2.379,1.515v0l-.562.361c.158.216.787,1.073,1.524,1.968a14.256,14.256,0,0,0,1.857,1.974l2.266-1.443a11.9,11.9,0,0,0-1.121-2.391C270.471,123.738,270,123.005,269.774,122.653Z" transform="translate(-248.762 -102.08)" fill="#555556"/>
      <path id="Path_77" data-name="Path 77" d="M275.472,114.818l-.273-3.681a2.24,2.24,0,0,1,1.177-1.326s6.488-.452,6.581.787l.273,3.681c.074,1.041-6.4,1.686-6.4,1.686a1.264,1.264,0,0,1-1.363-1.146Z" transform="translate(-253.058 -98.147)" fill="#555556"/>
      <path id="Path_77_-_Outline" data-name="Path 77 - Outline" d="M275.971,116.448a2.513,2.513,0,0,1-2.512-2.3l-.1-1.336h0l-.174-2.343a2.175,2.175,0,0,1,.718-1.653,2.5,2.5,0,0,1,1.612-1.007c.051,0,1.216-.084,2.586-.084a18.939,18.939,0,0,1,2.911.181,4.874,4.874,0,0,1,1.305.369,1.756,1.756,0,0,1,1.109,1.469l.273,3.685a1.627,1.627,0,0,1-.789,1.485,4.218,4.218,0,0,1-1.015.483,16.7,16.7,0,0,1-2.39.579c-1.64.3-3.259.459-3.327.466l-.035,0C276.092,116.446,276.031,116.448,275.971,116.448Zm-.022-2.5a.051.051,0,0,0,.02,0c.19-.02,1.319-.14,2.547-.34a15.238,15.238,0,0,0,2.663-.61l-.191-2.574a12.807,12.807,0,0,0-2.879-.222c-.916,0-1.751.039-2.155.062a2.451,2.451,0,0,0-.257.287Z" transform="translate(-252.293 -97.383)" fill="#555556"/>
      <path id="Path_78" data-name="Path 78" d="M270.6,101.986l-3.167-2.02a2.173,2.173,0,0,1-.366-1.717s3.569-5.3,4.635-4.617l3.167,2.02c.892.57-2.5,5.974-2.5,5.974A1.3,1.3,0,0,1,270.6,101.986Z" transform="translate(-249.942 -92.002)" fill="#555556"/>
      <path id="Path_78_-_Outline" data-name="Path 78 - Outline" d="M270.533,102.667a2.543,2.543,0,0,1-1.36-.393l0,0L266,100.252a2.427,2.427,0,0,1-.918-1.636,2.185,2.185,0,0,1,.189-1.826c.033-.049.829-1.228,1.8-2.426,1.609-1.989,2.667-2.8,3.651-2.8a1.648,1.648,0,0,1,.89.257l3.165,2.019a1.624,1.624,0,0,1,.723,1.516,4.039,4.039,0,0,1-.225,1.1,15.793,15.793,0,0,1-.98,2.211c-.753,1.451-1.6,2.806-1.638,2.862l-.022.033A2.529,2.529,0,0,1,270.533,102.667Zm-.029-2.5a.053.053,0,0,0,.029.007.073.073,0,0,0,.037-.009c.113-.182.684-1.106,1.25-2.152a14.67,14.67,0,0,0,1.109-2.4l-2.258-1.44a11.6,11.6,0,0,0-1.841,1.978c-.584.737-1.09,1.449-1.335,1.8a2.373,2.373,0,0,0,.075.345Z" transform="translate(-249.177 -91.238)" fill="#555556"/>
      <path id="Path_79" data-name="Path 79" d="M258.03,99.736,254.7,101.5a2.336,2.336,0,0,1-1.729-.5s-3.1-5.565-1.983-6.16l3.328-1.76c.942-.5,4.226,4.976,4.226,4.976a1.221,1.221,0,0,1-.514,1.679Z" transform="translate(-243.758 -91.803)" fill="#555556"/>
      <path id="Path_79_-_Outline" data-name="Path 79 - Outline" d="M253.705,102.017a4.273,4.273,0,0,1-1.282-.244,2.2,2.2,0,0,1-1.3-.927l0,0c-.027-.049-.674-1.211-1.283-2.553a18.181,18.181,0,0,1-.827-2.112A3.79,3.79,0,0,1,248.824,94a1.678,1.678,0,0,1,.817-1.024l3.329-1.761a1.543,1.543,0,0,1,.717-.176c.964,0,1.9.821,3.469,3.029.9,1.276,1.659,2.53,1.69,2.583l.02.035a2.439,2.439,0,0,1,.207,1.9,2.464,2.464,0,0,1-1.23,1.485l-3.333,1.763A1.708,1.708,0,0,1,253.705,102.017Zm-.538-2.623a2.648,2.648,0,0,0,.413.117l3.094-1.636c-.143-.235-.7-1.134-1.351-2.08a14.244,14.244,0,0,0-1.683-2.116l-2.381,1.259a11.787,11.787,0,0,0,.915,2.473C252.565,98.257,252.968,99.023,253.168,99.394Z" transform="translate(-242.993 -91.039)" fill="#555556"/>
      <path id="Path_80" data-name="Path 80" d="M249.238,110.174l.273,3.681a2.24,2.24,0,0,1-1.177,1.326s-6.488.452-6.581-.787l-.273-3.681c-.074-1.041,6.4-1.686,6.4-1.686a1.264,1.264,0,0,1,1.363,1.146Z" transform="translate(-240.233 -97.879)" fill="#555556"/>
      <path id="Path_80_-_Outline" data-name="Path 80 - Outline" d="M247.21,107.015a2.513,2.513,0,0,1,2.512,2.3l.1,1.336h0l.174,2.343a2.175,2.175,0,0,1-.718,1.653,2.5,2.5,0,0,1-1.612,1.007c-.051,0-1.216.084-2.586.084a18.941,18.941,0,0,1-2.911-.181,4.873,4.873,0,0,1-1.305-.369,1.756,1.756,0,0,1-1.109-1.469l-.273-3.685a1.627,1.627,0,0,1,.789-1.485,4.218,4.218,0,0,1,1.015-.483,16.7,16.7,0,0,1,2.39-.579c1.64-.3,3.259-.459,3.327-.466l.035,0C247.089,107.017,247.15,107.015,247.21,107.015Zm.022,2.5a.051.051,0,0,0-.02,0c-.19.02-1.319.14-2.547.34a15.239,15.239,0,0,0-2.663.61l.191,2.574a12.807,12.807,0,0,0,2.879.222c.916,0,1.751-.039,2.155-.062a2.455,2.455,0,0,0,.257-.287Z" transform="translate(-239.469 -97.115)" fill="#555556"/>
      <path id="Path_81" data-name="Path 81" d="M253.878,121.534l3.26,1.884a2.158,2.158,0,0,1,.446,1.7s-3.321,5.447-4.418,4.815l-3.26-1.884c-.923-.533,2.225-6.079,2.225-6.079a1.3,1.3,0,0,1,1.747-.434Z" transform="translate(-243.374 -102.571)" fill="#555556"/>
      <path id="Path_81_-_Outline" data-name="Path 81 - Outline" d="M252.464,119.351a2.56,2.56,0,0,1,1.268.337l.005,0,3.26,1.884a2.435,2.435,0,0,1,.994,1.6,2.174,2.174,0,0,1-.11,1.829c-.052.086-.793,1.294-1.7,2.521a16.589,16.589,0,0,1-1.511,1.812,3.008,3.008,0,0,1-2.07,1.127,1.646,1.646,0,0,1-.822-.217l-3.261-1.885a1.627,1.627,0,0,1-.792-1.479,4.023,4.023,0,0,1,.173-1.108,15.677,15.677,0,0,1,.877-2.254c.685-1.483,1.473-2.874,1.506-2.932l.02-.034A2.542,2.542,0,0,1,252.464,119.351Zm.031,2.5a.062.062,0,0,0-.031-.008.063.063,0,0,0-.033.008c-.1.185-.632,1.134-1.151,2.2a14.517,14.517,0,0,0-1,2.449l2.33,1.346a11.615,11.615,0,0,0,1.756-2.067c.547-.759,1.014-1.485,1.241-1.845a2.353,2.353,0,0,0-.09-.339Z" transform="translate(-242.609 -101.807)" fill="#555556"/>
    </g>
  </g>
</svg>
