<svg xmlns="http://www.w3.org/2000/svg" width="34.371" height="40" viewBox="0 0 34.371 40">
  <g id="AppleIcon" transform="translate(-25.601 -5.12)">
    <g id="Group_84" data-name="Group 84" transform="translate(25.601 5.12)">
      <path id="Path_153" data-name="Path 153" d="M59.972,34.468a28.722,28.722,0,0,1-2.6,4.851c-1.688,2.568-4.069,5.774-7.011,5.795-2.619.024-3.295-1.709-6.851-1.678S39.222,45.147,36.6,45.12c-2.945-.027-5.2-2.914-6.885-5.479-4.721-7.191-5.221-15.621-2.3-20.105a10.448,10.448,0,0,1,8.4-5.048c3.125,0,5.088,1.715,7.67,1.715,2.507,0,4.032-1.719,7.646-1.719a10.205,10.205,0,0,1,7.683,4.056,8.8,8.8,0,0,0,1.165,15.927ZM48.379,11.615a8.762,8.762,0,0,0,1.95-6.495,9.481,9.481,0,0,0-6.114,3.288,8.151,8.151,0,0,0-2,6.335A7.972,7.972,0,0,0,48.379,11.615Z" transform="translate(-25.601 -5.12)" fill="#555556"/>
    </g>
  </g>
</svg>
