<svg xmlns="http://www.w3.org/2000/svg" width="30.459" height="44.556" viewBox="0 0 30.459 44.556">
  <g id="DefaultChecklist" transform="translate(-159.901 -150.156)">
    <g id="Group_147" data-name="Group 147" transform="translate(159.901 150.156)">
      <path id="Path_175" data-name="Path 175" d="M26.817,51.066H5.463a4.123,4.123,0,0,1-4.111-4.111V14.428a4.123,4.123,0,0,1,4.111-4.111H26.817a4.123,4.123,0,0,1,4.111,4.111V46.955a4.123,4.123,0,0,1-4.111,4.111" transform="translate(-0.911 -6.951)" fill="#e9e8e8"/>
      <path id="Rectangle_77" data-name="Rectangle 77" d="M3.2-1.352H24.555A4.552,4.552,0,0,1,29.107,3.2V35.727a4.552,4.552,0,0,1-4.552,4.552H3.2a4.552,4.552,0,0,1-4.552-4.552V3.2A4.552,4.552,0,0,1,3.2-1.352ZM24.555,39.4a3.67,3.67,0,0,0,3.67-3.67V3.2a3.67,3.67,0,0,0-3.67-3.67H3.2A3.67,3.67,0,0,0-.47,3.2V35.727A3.67,3.67,0,0,0,3.2,39.4Z" transform="translate(1.352 4.277)" fill="#555556"/>
      <path id="Path_176" data-name="Path 176" d="M17.495,33a3.252,3.252,0,1,1-3.252-3.252A3.252,3.252,0,0,1,17.495,33" transform="translate(-7.404 -20.044)" fill="#719991"/>
      <path id="Path_177" data-name="Path 177" d="M13.332,28.4a3.693,3.693,0,1,1-2.612,1.082A3.669,3.669,0,0,1,13.332,28.4Zm0,6.5a2.811,2.811,0,1,0-2.811-2.811A2.814,2.814,0,0,0,13.332,34.9Z" transform="translate(-6.558 -19.133)" fill="#555556"/>
      <path id="Path_178" data-name="Path 178" d="M17.495,66.044a3.252,3.252,0,1,1-3.252-3.252,3.252,3.252,0,0,1,3.252,3.252" transform="translate(-7.404 -42.304)" fill="#719991"/>
      <path id="Path_179" data-name="Path 179" d="M13.332,61.44a3.693,3.693,0,1,1-2.612,1.082A3.669,3.669,0,0,1,13.332,61.44Zm0,6.5a2.811,2.811,0,1,0-2.811-2.811A2.814,2.814,0,0,0,13.332,67.944Z" transform="translate(-6.558 -41.393)" fill="#555556"/>
      <path id="Path_180" data-name="Path 180" d="M17.495,99.085a3.252,3.252,0,1,1-3.252-3.252,3.252,3.252,0,0,1,3.252,3.252" transform="translate(-7.404 -64.564)" fill="#719991"/>
      <path id="Path_181" data-name="Path 181" d="M13.332,94.481a3.693,3.693,0,1,1-2.612,1.082A3.669,3.669,0,0,1,13.332,94.481Zm0,6.5a2.811,2.811,0,1,0-2.811-2.811A2.814,2.814,0,0,0,13.332,100.985Z" transform="translate(-6.558 -63.742)" fill="#555556"/>
      <path id="Path_182" data-name="Path 182" d="M41.384,2.6h-.947a.589.589,0,0,1-.556-.35,1.784,1.784,0,0,0-3.2,0,.589.589,0,0,1-.556.35H35.18a1.506,1.506,0,0,0-1.593,1.388v.628A1.506,1.506,0,0,0,35.18,6h6.2a1.506,1.506,0,0,0,1.593-1.388V3.985A1.506,1.506,0,0,0,41.384,2.6" transform="translate(-22.628 -0.846)" fill="#cc675d"/>
      <path id="Path_183" data-name="Path 183" d="M37.437,0a2.1,2.1,0,0,1,1.979,1.252.188.188,0,0,0,.175.091h.947a1.91,1.91,0,0,1,2,1.8v.628a1.91,1.91,0,0,1-2,1.8h-6.2a1.91,1.91,0,0,1-2-1.8V3.14a1.91,1.91,0,0,1,2-1.8h.947a.188.188,0,0,0,.175-.091A2.1,2.1,0,0,1,37.437,0Zm3.1,4.746a1.3,1.3,0,0,0,.856-.307.892.892,0,0,0,.328-.671V3.14a.892.892,0,0,0-.328-.671,1.3,1.3,0,0,0-.856-.307h-.947a1,1,0,0,1-.937-.609,1.378,1.378,0,0,0-2.437,0,1,1,0,0,1-.937.608h-.947a1.3,1.3,0,0,0-.856.307.892.892,0,0,0-.328.671v.628a.892.892,0,0,0,.328.671,1.3,1.3,0,0,0,.856.307Z" transform="translate(-21.783 0)" fill="#555556"/>
      <path id="Path_184" data-name="Path 184" d="M47.831,4.688a.137.137,0,1,1-.137-.137.137.137,0,0,1,.137.137" transform="translate(-32.039 -3.066)" fill="#e9e8e8"/>
      <path id="Path_185" data-name="Path 185" d="M47.15,3.743a.4.4,0,1,1-.4.4A.4.4,0,0,1,47.15,3.743Z" transform="translate(-31.495 -2.522)" fill="#555556"/>
      <path id="Line_17" data-name="Line 17" d="M9.091-.47h-10a.441.441,0,0,1-.441-.441.441.441,0,0,1,.441-.441h10a.441.441,0,0,1,.441.441A.441.441,0,0,1,9.091-.47Z" transform="translate(14.576 12.594)" fill="#555556"/>
      <path id="Line_18" data-name="Line 18" d="M9.15-.47H-.911a.441.441,0,0,1-.441-.441.441.441,0,0,1,.441-.441H9.15a.441.441,0,0,1,.441.441A.441.441,0,0,1,9.15-.47Z" transform="translate(14.572 15.148)" fill="#555556"/>
      <path id="Line_19" data-name="Line 19" d="M9.091-.47h-10a.441.441,0,0,1-.441-.441.441.441,0,0,1,.441-.441h10a.441.441,0,0,1,.441.441A.441.441,0,0,1,9.091-.47Z" transform="translate(13.83 23.374)" fill="#555556"/>
      <path id="Line_20" data-name="Line 20" d="M9.15-.47H-.911a.441.441,0,0,1-.441-.441.441.441,0,0,1,.441-.441H9.15a.441.441,0,0,1,.441.441A.441.441,0,0,1,9.15-.47Z" transform="translate(13.826 25.929)" fill="#555556"/>
      <path id="Line_21" data-name="Line 21" d="M9.091-.47h-10a.441.441,0,0,1-.441-.441.441.441,0,0,1,.441-.441h10a.441.441,0,0,1,.441.441A.441.441,0,0,1,9.091-.47Z" transform="translate(13.805 34.155)" fill="#555556"/>
      <path id="Line_22" data-name="Line 22" d="M9.15-.47H-.911a.441.441,0,0,1-.441-.441.441.441,0,0,1,.441-.441H9.15a.441.441,0,0,1,.441.441A.441.441,0,0,1,9.15-.47Z" transform="translate(13.801 36.709)" fill="#555556"/>
      <rect id="Rectangle_78" data-name="Rectangle 78" width="30.459" height="44.556" transform="translate(0)" fill="none"/>
    </g>
    <path id="Path_100" data-name="Path 100" d="M976.158,357.815a.326.326,0,0,1-.257-.126l-1.131-1.453a.327.327,0,1,1,.514-.4l.833,1.07,1.377-2.4a.327.327,0,1,1,.565.327l-1.619,2.816a.326.326,0,0,1-.26.163Z" transform="translate(-809.549 -193.193)" fill="#eeeded"/>
    <path id="Path_186" data-name="Path 186" d="M976.158,357.815a.326.326,0,0,1-.257-.126l-1.131-1.453a.327.327,0,1,1,.514-.4l.833,1.07,1.377-2.4a.327.327,0,1,1,.565.327l-1.619,2.816a.326.326,0,0,1-.26.163Z" transform="translate(-809.549 -171.279)" fill="#eeeded"/>
    <path id="Path_187" data-name="Path 187" d="M976.158,357.815a.326.326,0,0,1-.257-.126l-1.131-1.453a.327.327,0,1,1,.514-.4l.833,1.07,1.377-2.4a.327.327,0,1,1,.565.327l-1.619,2.816a.326.326,0,0,1-.26.163Z" transform="translate(-809.549 -182.236)" fill="#eeeded"/>
  </g>
</svg>
