<svg xmlns="http://www.w3.org/2000/svg" width="34.988" height="39.651" viewBox="0 0 34.988 39.651">
  <g id="Group_33" data-name="Group 33" transform="translate(2 2)">
    <path id="Path_55" data-name="Path 55" d="M39.371,23.708a8.45,8.45,0,1,1-8.45-8.45,8.45,8.45,0,0,1,8.45,8.45" transform="translate(-15.723 -15.258)" fill="#eeeded" stroke="#555556" stroke-linecap="round" stroke-width="4"/>
    <ellipse id="Ellipse_2" data-name="Ellipse 2" cx="8.45" cy="8.45" rx="8.45" ry="8.45" transform="translate(6.747)" fill="#eeeded" stroke="#555556" stroke-linecap="round" stroke-width="4"/>
    <path id="Path_56" data-name="Path 56" d="M47.489,43.468c0-7.323-6.936-13.259-15.494-13.259S16.5,36.145,16.5,43.468s30.988,7.323,30.988,0" transform="translate(-16.501 -13.31)" fill="#eeeded" stroke="#555556" stroke-linecap="round" stroke-width="4"/>
    <path id="Path_57" data-name="Path 57" d="M47.489,43.468c0-7.323-6.936-13.259-15.494-13.259S16.5,36.145,16.5,43.468,47.489,50.791,47.489,43.468Z" transform="translate(-16.501 -13.31)" fill="#eeeded" stroke="#555556" stroke-linecap="round" stroke-width="4"/>
  </g>
</svg>
